G04 #@! TF.GenerationSoftware,KiCad,Pcbnew,5.0.2+dfsg1-1~bpo9+1*
G04 #@! TF.CreationDate,2019-07-06T14:36:30+01:00*
G04 #@! TF.ProjectId,pi_gpio_breakout_fan,70695f67-7069-46f5-9f62-7265616b6f75,rev?*
G04 #@! TF.SameCoordinates,Original*
G04 #@! TF.FileFunction,Copper,L1,Top*
G04 #@! TF.FilePolarity,Positive*
%FSLAX46Y46*%
G04 Gerber Fmt 4.6, Leading zero omitted, Abs format (unit mm)*
G04 Created by KiCad (PCBNEW 5.0.2+dfsg1-1~bpo9+1) date Sat 06 Jul 2019 14:36:30 BST*
%MOMM*%
%LPD*%
G01*
G04 APERTURE LIST*
G04 #@! TA.AperFunction,ComponentPad*
%ADD10R,1.727200X1.727200*%
G04 #@! TD*
G04 #@! TA.AperFunction,ComponentPad*
%ADD11O,1.727200X1.727200*%
G04 #@! TD*
G04 #@! TA.AperFunction,ComponentPad*
%ADD12C,1.600000*%
G04 #@! TD*
G04 #@! TA.AperFunction,ComponentPad*
%ADD13C,3.800000*%
G04 #@! TD*
G04 #@! TA.AperFunction,ComponentPad*
%ADD14C,1.900000*%
G04 #@! TD*
G04 #@! TA.AperFunction,Conductor*
%ADD15C,0.250000*%
G04 #@! TD*
G04 APERTURE END LIST*
D10*
G04 #@! TO.P,U1,1*
G04 #@! TO.N,Net-(U1-Pad1)*
X155956000Y-104902000D03*
D11*
G04 #@! TO.P,U1,2*
G04 #@! TO.N,Net-(SW1-Pad2)*
X158496000Y-104902000D03*
G04 #@! TO.P,U1,3*
G04 #@! TO.N,Net-(U1-Pad3)*
X155956000Y-107442000D03*
G04 #@! TO.P,U1,4*
G04 #@! TO.N,Net-(U1-Pad4)*
X158496000Y-107442000D03*
G04 #@! TO.P,U1,5*
G04 #@! TO.N,Net-(U1-Pad5)*
X155956000Y-109982000D03*
G04 #@! TO.P,U1,6*
G04 #@! TO.N,Net-(U1-Pad6)*
X158496000Y-109982000D03*
G04 #@! TO.P,U1,7*
G04 #@! TO.N,Net-(U1-Pad7)*
X155956000Y-112522000D03*
G04 #@! TO.P,U1,8*
G04 #@! TO.N,Net-(U1-Pad8)*
X158496000Y-112522000D03*
G04 #@! TO.P,U1,9*
G04 #@! TO.N,Net-(U1-Pad9)*
X155956000Y-115062000D03*
G04 #@! TO.P,U1,10*
G04 #@! TO.N,Net-(U1-Pad10)*
X158496000Y-115062000D03*
G04 #@! TO.P,U1,11*
G04 #@! TO.N,Net-(U1-Pad11)*
X155956000Y-117602000D03*
G04 #@! TO.P,U1,12*
G04 #@! TO.N,Net-(U1-Pad12)*
X158496000Y-117602000D03*
G04 #@! TO.P,U1,13*
G04 #@! TO.N,Net-(U1-Pad13)*
X155956000Y-120142000D03*
G04 #@! TO.P,U1,14*
G04 #@! TO.N,Net-(U1-Pad14)*
X158496000Y-120142000D03*
G04 #@! TO.P,U1,15*
G04 #@! TO.N,Net-(U1-Pad15)*
X155956000Y-122682000D03*
G04 #@! TO.P,U1,16*
G04 #@! TO.N,Net-(U1-Pad16)*
X158496000Y-122682000D03*
G04 #@! TO.P,U1,17*
G04 #@! TO.N,Net-(U1-Pad17)*
X155956000Y-125222000D03*
G04 #@! TO.P,U1,18*
G04 #@! TO.N,Net-(U1-Pad18)*
X158496000Y-125222000D03*
G04 #@! TO.P,U1,19*
G04 #@! TO.N,Net-(U1-Pad19)*
X155956000Y-127762000D03*
G04 #@! TO.P,U1,20*
G04 #@! TO.N,Net-(U1-Pad20)*
X158496000Y-127762000D03*
G04 #@! TO.P,U1,21*
G04 #@! TO.N,Net-(U1-Pad21)*
X155956000Y-130302000D03*
G04 #@! TO.P,U1,22*
G04 #@! TO.N,Net-(U1-Pad22)*
X158496000Y-130302000D03*
G04 #@! TO.P,U1,23*
G04 #@! TO.N,Net-(U1-Pad23)*
X155956000Y-132842000D03*
G04 #@! TO.P,U1,24*
G04 #@! TO.N,Net-(U1-Pad24)*
X158496000Y-132842000D03*
G04 #@! TO.P,U1,25*
G04 #@! TO.N,Net-(U1-Pad25)*
X155956000Y-135382000D03*
G04 #@! TO.P,U1,26*
G04 #@! TO.N,Net-(U1-Pad26)*
X158496000Y-135382000D03*
G04 #@! TO.P,U1,27*
G04 #@! TO.N,Net-(U1-Pad27)*
X155956000Y-137922000D03*
G04 #@! TO.P,U1,28*
G04 #@! TO.N,Net-(U1-Pad28)*
X158496000Y-137922000D03*
G04 #@! TO.P,U1,29*
G04 #@! TO.N,Net-(U1-Pad29)*
X155956000Y-140462000D03*
G04 #@! TO.P,U1,30*
G04 #@! TO.N,Net-(U1-Pad30)*
X158496000Y-140462000D03*
G04 #@! TO.P,U1,31*
G04 #@! TO.N,Net-(U1-Pad31)*
X155956000Y-143002000D03*
G04 #@! TO.P,U1,32*
G04 #@! TO.N,Net-(U1-Pad32)*
X158496000Y-143002000D03*
G04 #@! TO.P,U1,33*
G04 #@! TO.N,Net-(U1-Pad33)*
X155956000Y-145542000D03*
G04 #@! TO.P,U1,34*
G04 #@! TO.N,Net-(U1-Pad34)*
X158496000Y-145542000D03*
G04 #@! TO.P,U1,35*
G04 #@! TO.N,Net-(U1-Pad35)*
X155956000Y-148082000D03*
G04 #@! TO.P,U1,36*
G04 #@! TO.N,Net-(U1-Pad36)*
X158496000Y-148082000D03*
G04 #@! TO.P,U1,37*
G04 #@! TO.N,Net-(U1-Pad37)*
X155956000Y-150622000D03*
G04 #@! TO.P,U1,38*
G04 #@! TO.N,Net-(U1-Pad38)*
X158496000Y-150622000D03*
G04 #@! TO.P,U1,39*
G04 #@! TO.N,Net-(U1-Pad39)*
X155956000Y-153162000D03*
G04 #@! TO.P,U1,40*
G04 #@! TO.N,Net-(U1-Pad40)*
X158496000Y-153162000D03*
G04 #@! TD*
D10*
G04 #@! TO.P,U2,1*
G04 #@! TO.N,Net-(U1-Pad1)*
X148590000Y-104902000D03*
D11*
G04 #@! TO.P,U2,2*
G04 #@! TO.N,Net-(SW1-Pad2)*
X151130000Y-104902000D03*
G04 #@! TO.P,U2,3*
G04 #@! TO.N,Net-(U1-Pad3)*
X148590000Y-107442000D03*
G04 #@! TO.P,U2,4*
G04 #@! TO.N,Net-(U1-Pad4)*
X151130000Y-107442000D03*
G04 #@! TO.P,U2,5*
G04 #@! TO.N,Net-(U1-Pad5)*
X148590000Y-109982000D03*
G04 #@! TO.P,U2,6*
G04 #@! TO.N,Net-(U1-Pad6)*
X151130000Y-109982000D03*
G04 #@! TO.P,U2,7*
G04 #@! TO.N,Net-(U1-Pad7)*
X148590000Y-112522000D03*
G04 #@! TO.P,U2,8*
G04 #@! TO.N,Net-(U1-Pad8)*
X151130000Y-112522000D03*
G04 #@! TO.P,U2,9*
G04 #@! TO.N,Net-(U1-Pad9)*
X148590000Y-115062000D03*
G04 #@! TO.P,U2,10*
G04 #@! TO.N,Net-(U1-Pad10)*
X151130000Y-115062000D03*
G04 #@! TO.P,U2,11*
G04 #@! TO.N,Net-(U1-Pad11)*
X148590000Y-117602000D03*
G04 #@! TO.P,U2,12*
G04 #@! TO.N,Net-(U1-Pad12)*
X151130000Y-117602000D03*
G04 #@! TO.P,U2,13*
G04 #@! TO.N,Net-(U1-Pad13)*
X148590000Y-120142000D03*
G04 #@! TO.P,U2,14*
G04 #@! TO.N,Net-(U1-Pad14)*
X151130000Y-120142000D03*
G04 #@! TO.P,U2,15*
G04 #@! TO.N,Net-(U1-Pad15)*
X148590000Y-122682000D03*
G04 #@! TO.P,U2,16*
G04 #@! TO.N,Net-(U1-Pad16)*
X151130000Y-122682000D03*
G04 #@! TO.P,U2,17*
G04 #@! TO.N,Net-(U1-Pad17)*
X148590000Y-125222000D03*
G04 #@! TO.P,U2,18*
G04 #@! TO.N,Net-(U1-Pad18)*
X151130000Y-125222000D03*
G04 #@! TO.P,U2,19*
G04 #@! TO.N,Net-(U1-Pad19)*
X148590000Y-127762000D03*
G04 #@! TO.P,U2,20*
G04 #@! TO.N,Net-(U1-Pad20)*
X151130000Y-127762000D03*
G04 #@! TO.P,U2,21*
G04 #@! TO.N,Net-(U1-Pad21)*
X148590000Y-130302000D03*
G04 #@! TO.P,U2,22*
G04 #@! TO.N,Net-(U1-Pad22)*
X151130000Y-130302000D03*
G04 #@! TO.P,U2,23*
G04 #@! TO.N,Net-(U1-Pad23)*
X148590000Y-132842000D03*
G04 #@! TO.P,U2,24*
G04 #@! TO.N,Net-(U1-Pad24)*
X151130000Y-132842000D03*
G04 #@! TO.P,U2,25*
G04 #@! TO.N,Net-(U1-Pad25)*
X148590000Y-135382000D03*
G04 #@! TO.P,U2,26*
G04 #@! TO.N,Net-(U1-Pad26)*
X151130000Y-135382000D03*
G04 #@! TO.P,U2,27*
G04 #@! TO.N,Net-(U1-Pad27)*
X148590000Y-137922000D03*
G04 #@! TO.P,U2,28*
G04 #@! TO.N,Net-(U1-Pad28)*
X151130000Y-137922000D03*
G04 #@! TO.P,U2,29*
G04 #@! TO.N,Net-(U1-Pad29)*
X148590000Y-140462000D03*
G04 #@! TO.P,U2,30*
G04 #@! TO.N,Net-(U1-Pad30)*
X151130000Y-140462000D03*
G04 #@! TO.P,U2,31*
G04 #@! TO.N,Net-(U1-Pad31)*
X148590000Y-143002000D03*
G04 #@! TO.P,U2,32*
G04 #@! TO.N,Net-(U1-Pad32)*
X151130000Y-143002000D03*
G04 #@! TO.P,U2,33*
G04 #@! TO.N,Net-(U1-Pad33)*
X148590000Y-145542000D03*
G04 #@! TO.P,U2,34*
G04 #@! TO.N,Net-(U1-Pad34)*
X151130000Y-145542000D03*
G04 #@! TO.P,U2,35*
G04 #@! TO.N,Net-(U1-Pad35)*
X148590000Y-148082000D03*
G04 #@! TO.P,U2,36*
G04 #@! TO.N,Net-(U1-Pad36)*
X151130000Y-148082000D03*
G04 #@! TO.P,U2,37*
G04 #@! TO.N,Net-(U1-Pad37)*
X148590000Y-150622000D03*
G04 #@! TO.P,U2,38*
G04 #@! TO.N,Net-(U1-Pad38)*
X151130000Y-150622000D03*
G04 #@! TO.P,U2,39*
G04 #@! TO.N,Net-(U1-Pad39)*
X148590000Y-153162000D03*
G04 #@! TO.P,U2,40*
G04 #@! TO.N,Net-(U1-Pad40)*
X151130000Y-153162000D03*
G04 #@! TD*
D12*
G04 #@! TO.P,U3,1*
G04 #@! TO.N,Net-(U1-Pad6)*
X144907000Y-100152200D03*
G04 #@! TO.P,U3,2*
G04 #@! TO.N,Net-(SW1-Pad1)*
X144907000Y-98120200D03*
G04 #@! TD*
D13*
G04 #@! TO.P,M1,1*
G04 #@! TO.N,Net-(M1-Pad1)*
X140957300Y-140665200D03*
G04 #@! TO.P,M1,2*
G04 #@! TO.N,Net-(M1-Pad2)*
X140957300Y-107873800D03*
G04 #@! TD*
D12*
G04 #@! TO.P,SW1,1*
G04 #@! TO.N,Net-(SW1-Pad1)*
X150723600Y-98844100D03*
G04 #@! TO.P,SW1,2*
G04 #@! TO.N,Net-(SW1-Pad2)*
X152882600Y-98844100D03*
G04 #@! TO.P,SW1,3*
G04 #@! TO.N,Net-(SW1-Pad3)*
X155041600Y-98844100D03*
D14*
G04 #@! TO.P,SW1,4*
G04 #@! TO.N,N/C*
X148539200Y-98844100D03*
X157251400Y-98844100D03*
G04 #@! TD*
D15*
G04 #@! TO.N,Net-(U1-Pad4)*
X151130000Y-107442000D02*
X153670000Y-107442000D01*
X157226000Y-106172000D02*
X158496000Y-107442000D01*
X154940000Y-106172000D02*
X157226000Y-106172000D01*
X153670000Y-107442000D02*
X154940000Y-106172000D01*
G04 #@! TO.N,Net-(U1-Pad6)*
X151130000Y-109982000D02*
X153162000Y-109982000D01*
X157226000Y-108712000D02*
X158496000Y-109982000D01*
X154432000Y-108712000D02*
X157226000Y-108712000D01*
X153162000Y-109982000D02*
X154432000Y-108712000D01*
X144907000Y-101283570D02*
X145376900Y-101753470D01*
X144907000Y-100152200D02*
X144907000Y-101283570D01*
X145376900Y-101753470D02*
X145376900Y-106718100D01*
X145376900Y-106718100D02*
X146583400Y-107924600D01*
X146583400Y-109734530D02*
X148164370Y-111315500D01*
X146583400Y-107924600D02*
X146583400Y-109734530D01*
X149796500Y-111315500D02*
X151130000Y-109982000D01*
X148164370Y-111315500D02*
X149796500Y-111315500D01*
G04 #@! TO.N,Net-(U1-Pad8)*
X151130000Y-112522000D02*
X153416000Y-112522000D01*
X157226000Y-111252000D02*
X158496000Y-112522000D01*
X154686000Y-111252000D02*
X157226000Y-111252000D01*
X153416000Y-112522000D02*
X154686000Y-111252000D01*
G04 #@! TO.N,Net-(U1-Pad10)*
X151130000Y-115062000D02*
X153670000Y-115062000D01*
X157226000Y-113792000D02*
X158496000Y-115062000D01*
X154940000Y-113792000D02*
X157226000Y-113792000D01*
X153670000Y-115062000D02*
X154940000Y-113792000D01*
G04 #@! TO.N,Net-(U1-Pad12)*
X151130000Y-117602000D02*
X152908000Y-117602000D01*
X157226000Y-116332000D02*
X158496000Y-117602000D01*
X154178000Y-116332000D02*
X157226000Y-116332000D01*
X152908000Y-117602000D02*
X154178000Y-116332000D01*
G04 #@! TO.N,Net-(U1-Pad14)*
X151130000Y-120142000D02*
X153416000Y-120142000D01*
X157226000Y-118872000D02*
X158496000Y-120142000D01*
X154686000Y-118872000D02*
X157226000Y-118872000D01*
X153416000Y-120142000D02*
X154686000Y-118872000D01*
G04 #@! TO.N,Net-(U1-Pad16)*
X151130000Y-122682000D02*
X153162000Y-122682000D01*
X157226000Y-121412000D02*
X158496000Y-122682000D01*
X154432000Y-121412000D02*
X157226000Y-121412000D01*
X153162000Y-122682000D02*
X154432000Y-121412000D01*
G04 #@! TO.N,Net-(U1-Pad18)*
X151130000Y-125222000D02*
X153924000Y-125222000D01*
X157226000Y-123952000D02*
X158496000Y-125222000D01*
X155194000Y-123952000D02*
X157226000Y-123952000D01*
X153924000Y-125222000D02*
X155194000Y-123952000D01*
G04 #@! TO.N,Net-(U1-Pad20)*
X151130000Y-127762000D02*
X153416000Y-127762000D01*
X157226000Y-126492000D02*
X158496000Y-127762000D01*
X154686000Y-126492000D02*
X157226000Y-126492000D01*
X153416000Y-127762000D02*
X154686000Y-126492000D01*
G04 #@! TO.N,Net-(U1-Pad22)*
X151130000Y-130302000D02*
X153162000Y-130302000D01*
X157226000Y-129032000D02*
X158496000Y-130302000D01*
X154432000Y-129032000D02*
X157226000Y-129032000D01*
X153162000Y-130302000D02*
X154432000Y-129032000D01*
G04 #@! TO.N,Net-(U1-Pad24)*
X151130000Y-132842000D02*
X153162000Y-132842000D01*
X157226000Y-131572000D02*
X158496000Y-132842000D01*
X154432000Y-131572000D02*
X157226000Y-131572000D01*
X153162000Y-132842000D02*
X154432000Y-131572000D01*
G04 #@! TO.N,Net-(U1-Pad26)*
X151130000Y-135382000D02*
X153416000Y-135382000D01*
X157226000Y-134112000D02*
X158496000Y-135382000D01*
X154686000Y-134112000D02*
X157226000Y-134112000D01*
X153416000Y-135382000D02*
X154686000Y-134112000D01*
G04 #@! TO.N,Net-(U1-Pad28)*
X151130000Y-137922000D02*
X153924000Y-137922000D01*
X157226000Y-136652000D02*
X158496000Y-137922000D01*
X155194000Y-136652000D02*
X157226000Y-136652000D01*
X153924000Y-137922000D02*
X155194000Y-136652000D01*
G04 #@! TO.N,Net-(U1-Pad30)*
X151130000Y-140462000D02*
X153924000Y-140462000D01*
X157226000Y-139192000D02*
X158496000Y-140462000D01*
X155194000Y-139192000D02*
X157226000Y-139192000D01*
X153924000Y-140462000D02*
X155194000Y-139192000D01*
G04 #@! TO.N,Net-(U1-Pad32)*
X151130000Y-143002000D02*
X153924000Y-143002000D01*
X157226000Y-141732000D02*
X158496000Y-143002000D01*
X155194000Y-141732000D02*
X157226000Y-141732000D01*
X153924000Y-143002000D02*
X155194000Y-141732000D01*
G04 #@! TO.N,Net-(U1-Pad34)*
X151130000Y-145542000D02*
X153670000Y-145542000D01*
X157226000Y-144272000D02*
X158496000Y-145542000D01*
X154940000Y-144272000D02*
X157226000Y-144272000D01*
X153670000Y-145542000D02*
X154940000Y-144272000D01*
G04 #@! TO.N,Net-(U1-Pad36)*
X151130000Y-148082000D02*
X153670000Y-148082000D01*
X157226000Y-146812000D02*
X158496000Y-148082000D01*
X154940000Y-146812000D02*
X157226000Y-146812000D01*
X153670000Y-148082000D02*
X154940000Y-146812000D01*
G04 #@! TO.N,Net-(U1-Pad38)*
X151130000Y-150622000D02*
X153416000Y-150622000D01*
X157226000Y-149352000D02*
X158496000Y-150622000D01*
X154686000Y-149352000D02*
X157226000Y-149352000D01*
X153416000Y-150622000D02*
X154686000Y-149352000D01*
G04 #@! TO.N,Net-(U1-Pad40)*
X151130000Y-153162000D02*
X153416000Y-153162000D01*
X157226000Y-151892000D02*
X158496000Y-153162000D01*
X154686000Y-151892000D02*
X157226000Y-151892000D01*
X153416000Y-153162000D02*
X154686000Y-151892000D01*
G04 #@! TO.N,Net-(SW1-Pad1)*
X150723600Y-97712730D02*
X149848370Y-96837500D01*
X150723600Y-98844100D02*
X150723600Y-97712730D01*
X146189700Y-96837500D02*
X144907000Y-98120200D01*
X149848370Y-96837500D02*
X146189700Y-96837500D01*
G04 #@! TO.N,Net-(SW1-Pad2)*
X151130000Y-104902000D02*
X153162000Y-104902000D01*
X156972000Y-103378000D02*
X158496000Y-104902000D01*
X154686000Y-103378000D02*
X156972000Y-103378000D01*
X153162000Y-104902000D02*
X154686000Y-103378000D01*
X154686000Y-100647500D02*
X152882600Y-98844100D01*
X154686000Y-103378000D02*
X154686000Y-100647500D01*
G04 #@! TD*
M02*
