G04 #@! TF.GenerationSoftware,KiCad,Pcbnew,5.0.2+dfsg1-1~bpo9+1*
G04 #@! TF.CreationDate,2019-07-06T14:36:30+01:00*
G04 #@! TF.ProjectId,pi_gpio_breakout_fan,70695f67-7069-46f5-9f62-7265616b6f75,rev?*
G04 #@! TF.SameCoordinates,Original*
G04 #@! TF.FileFunction,Soldermask,Top*
G04 #@! TF.FilePolarity,Negative*
%FSLAX46Y46*%
G04 Gerber Fmt 4.6, Leading zero omitted, Abs format (unit mm)*
G04 Created by KiCad (PCBNEW 5.0.2+dfsg1-1~bpo9+1) date Sat 06 Jul 2019 14:36:30 BST*
%MOMM*%
%LPD*%
G01*
G04 APERTURE LIST*
%ADD10C,0.100000*%
G04 APERTURE END LIST*
D10*
G36*
X158704503Y-152113789D02*
X158904991Y-152174607D01*
X159089764Y-152273369D01*
X159251718Y-152406282D01*
X159384631Y-152568236D01*
X159483393Y-152753009D01*
X159544211Y-152953497D01*
X159564746Y-153162000D01*
X159544211Y-153370503D01*
X159483393Y-153570991D01*
X159384631Y-153755764D01*
X159251718Y-153917718D01*
X159089764Y-154050631D01*
X158904991Y-154149393D01*
X158704503Y-154210211D01*
X158548251Y-154225600D01*
X158443749Y-154225600D01*
X158287497Y-154210211D01*
X158087009Y-154149393D01*
X157902236Y-154050631D01*
X157740282Y-153917718D01*
X157607369Y-153755764D01*
X157508607Y-153570991D01*
X157447789Y-153370503D01*
X157427254Y-153162000D01*
X157447789Y-152953497D01*
X157508607Y-152753009D01*
X157607369Y-152568236D01*
X157740282Y-152406282D01*
X157902236Y-152273369D01*
X158087009Y-152174607D01*
X158287497Y-152113789D01*
X158443749Y-152098400D01*
X158548251Y-152098400D01*
X158704503Y-152113789D01*
X158704503Y-152113789D01*
G37*
G36*
X156164503Y-152113789D02*
X156364991Y-152174607D01*
X156549764Y-152273369D01*
X156711718Y-152406282D01*
X156844631Y-152568236D01*
X156943393Y-152753009D01*
X157004211Y-152953497D01*
X157024746Y-153162000D01*
X157004211Y-153370503D01*
X156943393Y-153570991D01*
X156844631Y-153755764D01*
X156711718Y-153917718D01*
X156549764Y-154050631D01*
X156364991Y-154149393D01*
X156164503Y-154210211D01*
X156008251Y-154225600D01*
X155903749Y-154225600D01*
X155747497Y-154210211D01*
X155547009Y-154149393D01*
X155362236Y-154050631D01*
X155200282Y-153917718D01*
X155067369Y-153755764D01*
X154968607Y-153570991D01*
X154907789Y-153370503D01*
X154887254Y-153162000D01*
X154907789Y-152953497D01*
X154968607Y-152753009D01*
X155067369Y-152568236D01*
X155200282Y-152406282D01*
X155362236Y-152273369D01*
X155547009Y-152174607D01*
X155747497Y-152113789D01*
X155903749Y-152098400D01*
X156008251Y-152098400D01*
X156164503Y-152113789D01*
X156164503Y-152113789D01*
G37*
G36*
X148798503Y-152113789D02*
X148998991Y-152174607D01*
X149183764Y-152273369D01*
X149345718Y-152406282D01*
X149478631Y-152568236D01*
X149577393Y-152753009D01*
X149638211Y-152953497D01*
X149658746Y-153162000D01*
X149638211Y-153370503D01*
X149577393Y-153570991D01*
X149478631Y-153755764D01*
X149345718Y-153917718D01*
X149183764Y-154050631D01*
X148998991Y-154149393D01*
X148798503Y-154210211D01*
X148642251Y-154225600D01*
X148537749Y-154225600D01*
X148381497Y-154210211D01*
X148181009Y-154149393D01*
X147996236Y-154050631D01*
X147834282Y-153917718D01*
X147701369Y-153755764D01*
X147602607Y-153570991D01*
X147541789Y-153370503D01*
X147521254Y-153162000D01*
X147541789Y-152953497D01*
X147602607Y-152753009D01*
X147701369Y-152568236D01*
X147834282Y-152406282D01*
X147996236Y-152273369D01*
X148181009Y-152174607D01*
X148381497Y-152113789D01*
X148537749Y-152098400D01*
X148642251Y-152098400D01*
X148798503Y-152113789D01*
X148798503Y-152113789D01*
G37*
G36*
X151338503Y-152113789D02*
X151538991Y-152174607D01*
X151723764Y-152273369D01*
X151885718Y-152406282D01*
X152018631Y-152568236D01*
X152117393Y-152753009D01*
X152178211Y-152953497D01*
X152198746Y-153162000D01*
X152178211Y-153370503D01*
X152117393Y-153570991D01*
X152018631Y-153755764D01*
X151885718Y-153917718D01*
X151723764Y-154050631D01*
X151538991Y-154149393D01*
X151338503Y-154210211D01*
X151182251Y-154225600D01*
X151077749Y-154225600D01*
X150921497Y-154210211D01*
X150721009Y-154149393D01*
X150536236Y-154050631D01*
X150374282Y-153917718D01*
X150241369Y-153755764D01*
X150142607Y-153570991D01*
X150081789Y-153370503D01*
X150061254Y-153162000D01*
X150081789Y-152953497D01*
X150142607Y-152753009D01*
X150241369Y-152568236D01*
X150374282Y-152406282D01*
X150536236Y-152273369D01*
X150721009Y-152174607D01*
X150921497Y-152113789D01*
X151077749Y-152098400D01*
X151182251Y-152098400D01*
X151338503Y-152113789D01*
X151338503Y-152113789D01*
G37*
G36*
X156164503Y-149573789D02*
X156364991Y-149634607D01*
X156549764Y-149733369D01*
X156711718Y-149866282D01*
X156844631Y-150028236D01*
X156943393Y-150213009D01*
X157004211Y-150413497D01*
X157024746Y-150622000D01*
X157004211Y-150830503D01*
X156943393Y-151030991D01*
X156844631Y-151215764D01*
X156711718Y-151377718D01*
X156549764Y-151510631D01*
X156364991Y-151609393D01*
X156164503Y-151670211D01*
X156008251Y-151685600D01*
X155903749Y-151685600D01*
X155747497Y-151670211D01*
X155547009Y-151609393D01*
X155362236Y-151510631D01*
X155200282Y-151377718D01*
X155067369Y-151215764D01*
X154968607Y-151030991D01*
X154907789Y-150830503D01*
X154887254Y-150622000D01*
X154907789Y-150413497D01*
X154968607Y-150213009D01*
X155067369Y-150028236D01*
X155200282Y-149866282D01*
X155362236Y-149733369D01*
X155547009Y-149634607D01*
X155747497Y-149573789D01*
X155903749Y-149558400D01*
X156008251Y-149558400D01*
X156164503Y-149573789D01*
X156164503Y-149573789D01*
G37*
G36*
X151338503Y-149573789D02*
X151538991Y-149634607D01*
X151723764Y-149733369D01*
X151885718Y-149866282D01*
X152018631Y-150028236D01*
X152117393Y-150213009D01*
X152178211Y-150413497D01*
X152198746Y-150622000D01*
X152178211Y-150830503D01*
X152117393Y-151030991D01*
X152018631Y-151215764D01*
X151885718Y-151377718D01*
X151723764Y-151510631D01*
X151538991Y-151609393D01*
X151338503Y-151670211D01*
X151182251Y-151685600D01*
X151077749Y-151685600D01*
X150921497Y-151670211D01*
X150721009Y-151609393D01*
X150536236Y-151510631D01*
X150374282Y-151377718D01*
X150241369Y-151215764D01*
X150142607Y-151030991D01*
X150081789Y-150830503D01*
X150061254Y-150622000D01*
X150081789Y-150413497D01*
X150142607Y-150213009D01*
X150241369Y-150028236D01*
X150374282Y-149866282D01*
X150536236Y-149733369D01*
X150721009Y-149634607D01*
X150921497Y-149573789D01*
X151077749Y-149558400D01*
X151182251Y-149558400D01*
X151338503Y-149573789D01*
X151338503Y-149573789D01*
G37*
G36*
X148798503Y-149573789D02*
X148998991Y-149634607D01*
X149183764Y-149733369D01*
X149345718Y-149866282D01*
X149478631Y-150028236D01*
X149577393Y-150213009D01*
X149638211Y-150413497D01*
X149658746Y-150622000D01*
X149638211Y-150830503D01*
X149577393Y-151030991D01*
X149478631Y-151215764D01*
X149345718Y-151377718D01*
X149183764Y-151510631D01*
X148998991Y-151609393D01*
X148798503Y-151670211D01*
X148642251Y-151685600D01*
X148537749Y-151685600D01*
X148381497Y-151670211D01*
X148181009Y-151609393D01*
X147996236Y-151510631D01*
X147834282Y-151377718D01*
X147701369Y-151215764D01*
X147602607Y-151030991D01*
X147541789Y-150830503D01*
X147521254Y-150622000D01*
X147541789Y-150413497D01*
X147602607Y-150213009D01*
X147701369Y-150028236D01*
X147834282Y-149866282D01*
X147996236Y-149733369D01*
X148181009Y-149634607D01*
X148381497Y-149573789D01*
X148537749Y-149558400D01*
X148642251Y-149558400D01*
X148798503Y-149573789D01*
X148798503Y-149573789D01*
G37*
G36*
X158704503Y-149573789D02*
X158904991Y-149634607D01*
X159089764Y-149733369D01*
X159251718Y-149866282D01*
X159384631Y-150028236D01*
X159483393Y-150213009D01*
X159544211Y-150413497D01*
X159564746Y-150622000D01*
X159544211Y-150830503D01*
X159483393Y-151030991D01*
X159384631Y-151215764D01*
X159251718Y-151377718D01*
X159089764Y-151510631D01*
X158904991Y-151609393D01*
X158704503Y-151670211D01*
X158548251Y-151685600D01*
X158443749Y-151685600D01*
X158287497Y-151670211D01*
X158087009Y-151609393D01*
X157902236Y-151510631D01*
X157740282Y-151377718D01*
X157607369Y-151215764D01*
X157508607Y-151030991D01*
X157447789Y-150830503D01*
X157427254Y-150622000D01*
X157447789Y-150413497D01*
X157508607Y-150213009D01*
X157607369Y-150028236D01*
X157740282Y-149866282D01*
X157902236Y-149733369D01*
X158087009Y-149634607D01*
X158287497Y-149573789D01*
X158443749Y-149558400D01*
X158548251Y-149558400D01*
X158704503Y-149573789D01*
X158704503Y-149573789D01*
G37*
G36*
X148798503Y-147033789D02*
X148998991Y-147094607D01*
X149183764Y-147193369D01*
X149345718Y-147326282D01*
X149478631Y-147488236D01*
X149577393Y-147673009D01*
X149638211Y-147873497D01*
X149658746Y-148082000D01*
X149638211Y-148290503D01*
X149577393Y-148490991D01*
X149478631Y-148675764D01*
X149345718Y-148837718D01*
X149183764Y-148970631D01*
X148998991Y-149069393D01*
X148798503Y-149130211D01*
X148642251Y-149145600D01*
X148537749Y-149145600D01*
X148381497Y-149130211D01*
X148181009Y-149069393D01*
X147996236Y-148970631D01*
X147834282Y-148837718D01*
X147701369Y-148675764D01*
X147602607Y-148490991D01*
X147541789Y-148290503D01*
X147521254Y-148082000D01*
X147541789Y-147873497D01*
X147602607Y-147673009D01*
X147701369Y-147488236D01*
X147834282Y-147326282D01*
X147996236Y-147193369D01*
X148181009Y-147094607D01*
X148381497Y-147033789D01*
X148537749Y-147018400D01*
X148642251Y-147018400D01*
X148798503Y-147033789D01*
X148798503Y-147033789D01*
G37*
G36*
X151338503Y-147033789D02*
X151538991Y-147094607D01*
X151723764Y-147193369D01*
X151885718Y-147326282D01*
X152018631Y-147488236D01*
X152117393Y-147673009D01*
X152178211Y-147873497D01*
X152198746Y-148082000D01*
X152178211Y-148290503D01*
X152117393Y-148490991D01*
X152018631Y-148675764D01*
X151885718Y-148837718D01*
X151723764Y-148970631D01*
X151538991Y-149069393D01*
X151338503Y-149130211D01*
X151182251Y-149145600D01*
X151077749Y-149145600D01*
X150921497Y-149130211D01*
X150721009Y-149069393D01*
X150536236Y-148970631D01*
X150374282Y-148837718D01*
X150241369Y-148675764D01*
X150142607Y-148490991D01*
X150081789Y-148290503D01*
X150061254Y-148082000D01*
X150081789Y-147873497D01*
X150142607Y-147673009D01*
X150241369Y-147488236D01*
X150374282Y-147326282D01*
X150536236Y-147193369D01*
X150721009Y-147094607D01*
X150921497Y-147033789D01*
X151077749Y-147018400D01*
X151182251Y-147018400D01*
X151338503Y-147033789D01*
X151338503Y-147033789D01*
G37*
G36*
X158704503Y-147033789D02*
X158904991Y-147094607D01*
X159089764Y-147193369D01*
X159251718Y-147326282D01*
X159384631Y-147488236D01*
X159483393Y-147673009D01*
X159544211Y-147873497D01*
X159564746Y-148082000D01*
X159544211Y-148290503D01*
X159483393Y-148490991D01*
X159384631Y-148675764D01*
X159251718Y-148837718D01*
X159089764Y-148970631D01*
X158904991Y-149069393D01*
X158704503Y-149130211D01*
X158548251Y-149145600D01*
X158443749Y-149145600D01*
X158287497Y-149130211D01*
X158087009Y-149069393D01*
X157902236Y-148970631D01*
X157740282Y-148837718D01*
X157607369Y-148675764D01*
X157508607Y-148490991D01*
X157447789Y-148290503D01*
X157427254Y-148082000D01*
X157447789Y-147873497D01*
X157508607Y-147673009D01*
X157607369Y-147488236D01*
X157740282Y-147326282D01*
X157902236Y-147193369D01*
X158087009Y-147094607D01*
X158287497Y-147033789D01*
X158443749Y-147018400D01*
X158548251Y-147018400D01*
X158704503Y-147033789D01*
X158704503Y-147033789D01*
G37*
G36*
X156164503Y-147033789D02*
X156364991Y-147094607D01*
X156549764Y-147193369D01*
X156711718Y-147326282D01*
X156844631Y-147488236D01*
X156943393Y-147673009D01*
X157004211Y-147873497D01*
X157024746Y-148082000D01*
X157004211Y-148290503D01*
X156943393Y-148490991D01*
X156844631Y-148675764D01*
X156711718Y-148837718D01*
X156549764Y-148970631D01*
X156364991Y-149069393D01*
X156164503Y-149130211D01*
X156008251Y-149145600D01*
X155903749Y-149145600D01*
X155747497Y-149130211D01*
X155547009Y-149069393D01*
X155362236Y-148970631D01*
X155200282Y-148837718D01*
X155067369Y-148675764D01*
X154968607Y-148490991D01*
X154907789Y-148290503D01*
X154887254Y-148082000D01*
X154907789Y-147873497D01*
X154968607Y-147673009D01*
X155067369Y-147488236D01*
X155200282Y-147326282D01*
X155362236Y-147193369D01*
X155547009Y-147094607D01*
X155747497Y-147033789D01*
X155903749Y-147018400D01*
X156008251Y-147018400D01*
X156164503Y-147033789D01*
X156164503Y-147033789D01*
G37*
G36*
X151338503Y-144493789D02*
X151538991Y-144554607D01*
X151723764Y-144653369D01*
X151885718Y-144786282D01*
X152018631Y-144948236D01*
X152117393Y-145133009D01*
X152178211Y-145333497D01*
X152198746Y-145542000D01*
X152178211Y-145750503D01*
X152117393Y-145950991D01*
X152018631Y-146135764D01*
X151885718Y-146297718D01*
X151723764Y-146430631D01*
X151538991Y-146529393D01*
X151338503Y-146590211D01*
X151182251Y-146605600D01*
X151077749Y-146605600D01*
X150921497Y-146590211D01*
X150721009Y-146529393D01*
X150536236Y-146430631D01*
X150374282Y-146297718D01*
X150241369Y-146135764D01*
X150142607Y-145950991D01*
X150081789Y-145750503D01*
X150061254Y-145542000D01*
X150081789Y-145333497D01*
X150142607Y-145133009D01*
X150241369Y-144948236D01*
X150374282Y-144786282D01*
X150536236Y-144653369D01*
X150721009Y-144554607D01*
X150921497Y-144493789D01*
X151077749Y-144478400D01*
X151182251Y-144478400D01*
X151338503Y-144493789D01*
X151338503Y-144493789D01*
G37*
G36*
X156164503Y-144493789D02*
X156364991Y-144554607D01*
X156549764Y-144653369D01*
X156711718Y-144786282D01*
X156844631Y-144948236D01*
X156943393Y-145133009D01*
X157004211Y-145333497D01*
X157024746Y-145542000D01*
X157004211Y-145750503D01*
X156943393Y-145950991D01*
X156844631Y-146135764D01*
X156711718Y-146297718D01*
X156549764Y-146430631D01*
X156364991Y-146529393D01*
X156164503Y-146590211D01*
X156008251Y-146605600D01*
X155903749Y-146605600D01*
X155747497Y-146590211D01*
X155547009Y-146529393D01*
X155362236Y-146430631D01*
X155200282Y-146297718D01*
X155067369Y-146135764D01*
X154968607Y-145950991D01*
X154907789Y-145750503D01*
X154887254Y-145542000D01*
X154907789Y-145333497D01*
X154968607Y-145133009D01*
X155067369Y-144948236D01*
X155200282Y-144786282D01*
X155362236Y-144653369D01*
X155547009Y-144554607D01*
X155747497Y-144493789D01*
X155903749Y-144478400D01*
X156008251Y-144478400D01*
X156164503Y-144493789D01*
X156164503Y-144493789D01*
G37*
G36*
X148798503Y-144493789D02*
X148998991Y-144554607D01*
X149183764Y-144653369D01*
X149345718Y-144786282D01*
X149478631Y-144948236D01*
X149577393Y-145133009D01*
X149638211Y-145333497D01*
X149658746Y-145542000D01*
X149638211Y-145750503D01*
X149577393Y-145950991D01*
X149478631Y-146135764D01*
X149345718Y-146297718D01*
X149183764Y-146430631D01*
X148998991Y-146529393D01*
X148798503Y-146590211D01*
X148642251Y-146605600D01*
X148537749Y-146605600D01*
X148381497Y-146590211D01*
X148181009Y-146529393D01*
X147996236Y-146430631D01*
X147834282Y-146297718D01*
X147701369Y-146135764D01*
X147602607Y-145950991D01*
X147541789Y-145750503D01*
X147521254Y-145542000D01*
X147541789Y-145333497D01*
X147602607Y-145133009D01*
X147701369Y-144948236D01*
X147834282Y-144786282D01*
X147996236Y-144653369D01*
X148181009Y-144554607D01*
X148381497Y-144493789D01*
X148537749Y-144478400D01*
X148642251Y-144478400D01*
X148798503Y-144493789D01*
X148798503Y-144493789D01*
G37*
G36*
X158704503Y-144493789D02*
X158904991Y-144554607D01*
X159089764Y-144653369D01*
X159251718Y-144786282D01*
X159384631Y-144948236D01*
X159483393Y-145133009D01*
X159544211Y-145333497D01*
X159564746Y-145542000D01*
X159544211Y-145750503D01*
X159483393Y-145950991D01*
X159384631Y-146135764D01*
X159251718Y-146297718D01*
X159089764Y-146430631D01*
X158904991Y-146529393D01*
X158704503Y-146590211D01*
X158548251Y-146605600D01*
X158443749Y-146605600D01*
X158287497Y-146590211D01*
X158087009Y-146529393D01*
X157902236Y-146430631D01*
X157740282Y-146297718D01*
X157607369Y-146135764D01*
X157508607Y-145950991D01*
X157447789Y-145750503D01*
X157427254Y-145542000D01*
X157447789Y-145333497D01*
X157508607Y-145133009D01*
X157607369Y-144948236D01*
X157740282Y-144786282D01*
X157902236Y-144653369D01*
X158087009Y-144554607D01*
X158287497Y-144493789D01*
X158443749Y-144478400D01*
X158548251Y-144478400D01*
X158704503Y-144493789D01*
X158704503Y-144493789D01*
G37*
G36*
X148798503Y-141953789D02*
X148998991Y-142014607D01*
X149183764Y-142113369D01*
X149345718Y-142246282D01*
X149478631Y-142408236D01*
X149577393Y-142593009D01*
X149638211Y-142793497D01*
X149658746Y-143002000D01*
X149638211Y-143210503D01*
X149577393Y-143410991D01*
X149478631Y-143595764D01*
X149345718Y-143757718D01*
X149183764Y-143890631D01*
X148998991Y-143989393D01*
X148798503Y-144050211D01*
X148642251Y-144065600D01*
X148537749Y-144065600D01*
X148381497Y-144050211D01*
X148181009Y-143989393D01*
X147996236Y-143890631D01*
X147834282Y-143757718D01*
X147701369Y-143595764D01*
X147602607Y-143410991D01*
X147541789Y-143210503D01*
X147521254Y-143002000D01*
X147541789Y-142793497D01*
X147602607Y-142593009D01*
X147701369Y-142408236D01*
X147834282Y-142246282D01*
X147996236Y-142113369D01*
X148181009Y-142014607D01*
X148381497Y-141953789D01*
X148537749Y-141938400D01*
X148642251Y-141938400D01*
X148798503Y-141953789D01*
X148798503Y-141953789D01*
G37*
G36*
X151338503Y-141953789D02*
X151538991Y-142014607D01*
X151723764Y-142113369D01*
X151885718Y-142246282D01*
X152018631Y-142408236D01*
X152117393Y-142593009D01*
X152178211Y-142793497D01*
X152198746Y-143002000D01*
X152178211Y-143210503D01*
X152117393Y-143410991D01*
X152018631Y-143595764D01*
X151885718Y-143757718D01*
X151723764Y-143890631D01*
X151538991Y-143989393D01*
X151338503Y-144050211D01*
X151182251Y-144065600D01*
X151077749Y-144065600D01*
X150921497Y-144050211D01*
X150721009Y-143989393D01*
X150536236Y-143890631D01*
X150374282Y-143757718D01*
X150241369Y-143595764D01*
X150142607Y-143410991D01*
X150081789Y-143210503D01*
X150061254Y-143002000D01*
X150081789Y-142793497D01*
X150142607Y-142593009D01*
X150241369Y-142408236D01*
X150374282Y-142246282D01*
X150536236Y-142113369D01*
X150721009Y-142014607D01*
X150921497Y-141953789D01*
X151077749Y-141938400D01*
X151182251Y-141938400D01*
X151338503Y-141953789D01*
X151338503Y-141953789D01*
G37*
G36*
X158704503Y-141953789D02*
X158904991Y-142014607D01*
X159089764Y-142113369D01*
X159251718Y-142246282D01*
X159384631Y-142408236D01*
X159483393Y-142593009D01*
X159544211Y-142793497D01*
X159564746Y-143002000D01*
X159544211Y-143210503D01*
X159483393Y-143410991D01*
X159384631Y-143595764D01*
X159251718Y-143757718D01*
X159089764Y-143890631D01*
X158904991Y-143989393D01*
X158704503Y-144050211D01*
X158548251Y-144065600D01*
X158443749Y-144065600D01*
X158287497Y-144050211D01*
X158087009Y-143989393D01*
X157902236Y-143890631D01*
X157740282Y-143757718D01*
X157607369Y-143595764D01*
X157508607Y-143410991D01*
X157447789Y-143210503D01*
X157427254Y-143002000D01*
X157447789Y-142793497D01*
X157508607Y-142593009D01*
X157607369Y-142408236D01*
X157740282Y-142246282D01*
X157902236Y-142113369D01*
X158087009Y-142014607D01*
X158287497Y-141953789D01*
X158443749Y-141938400D01*
X158548251Y-141938400D01*
X158704503Y-141953789D01*
X158704503Y-141953789D01*
G37*
G36*
X156164503Y-141953789D02*
X156364991Y-142014607D01*
X156549764Y-142113369D01*
X156711718Y-142246282D01*
X156844631Y-142408236D01*
X156943393Y-142593009D01*
X157004211Y-142793497D01*
X157024746Y-143002000D01*
X157004211Y-143210503D01*
X156943393Y-143410991D01*
X156844631Y-143595764D01*
X156711718Y-143757718D01*
X156549764Y-143890631D01*
X156364991Y-143989393D01*
X156164503Y-144050211D01*
X156008251Y-144065600D01*
X155903749Y-144065600D01*
X155747497Y-144050211D01*
X155547009Y-143989393D01*
X155362236Y-143890631D01*
X155200282Y-143757718D01*
X155067369Y-143595764D01*
X154968607Y-143410991D01*
X154907789Y-143210503D01*
X154887254Y-143002000D01*
X154907789Y-142793497D01*
X154968607Y-142593009D01*
X155067369Y-142408236D01*
X155200282Y-142246282D01*
X155362236Y-142113369D01*
X155547009Y-142014607D01*
X155747497Y-141953789D01*
X155903749Y-141938400D01*
X156008251Y-141938400D01*
X156164503Y-141953789D01*
X156164503Y-141953789D01*
G37*
G36*
X141569847Y-138645901D02*
X141952022Y-138804203D01*
X141961642Y-138810631D01*
X142295972Y-139034023D01*
X142588477Y-139326528D01*
X142687420Y-139474607D01*
X142818297Y-139670478D01*
X142976599Y-140052653D01*
X143057300Y-140458367D01*
X143057300Y-140872033D01*
X142976599Y-141277747D01*
X142818297Y-141659922D01*
X142818296Y-141659923D01*
X142588477Y-142003872D01*
X142295972Y-142296377D01*
X142128563Y-142408236D01*
X141952022Y-142526197D01*
X141569847Y-142684499D01*
X141164133Y-142765200D01*
X140750467Y-142765200D01*
X140344753Y-142684499D01*
X139962578Y-142526197D01*
X139786037Y-142408236D01*
X139618628Y-142296377D01*
X139326123Y-142003872D01*
X139096304Y-141659923D01*
X139096303Y-141659922D01*
X138938001Y-141277747D01*
X138857300Y-140872033D01*
X138857300Y-140458367D01*
X138938001Y-140052653D01*
X139096303Y-139670478D01*
X139227180Y-139474607D01*
X139326123Y-139326528D01*
X139618628Y-139034023D01*
X139952958Y-138810631D01*
X139962578Y-138804203D01*
X140344753Y-138645901D01*
X140750467Y-138565200D01*
X141164133Y-138565200D01*
X141569847Y-138645901D01*
X141569847Y-138645901D01*
G37*
G36*
X148798503Y-139413789D02*
X148998991Y-139474607D01*
X149183764Y-139573369D01*
X149345718Y-139706282D01*
X149478631Y-139868236D01*
X149577393Y-140053009D01*
X149638211Y-140253497D01*
X149658746Y-140462000D01*
X149638211Y-140670503D01*
X149577393Y-140870991D01*
X149478631Y-141055764D01*
X149345718Y-141217718D01*
X149183764Y-141350631D01*
X148998991Y-141449393D01*
X148798503Y-141510211D01*
X148642251Y-141525600D01*
X148537749Y-141525600D01*
X148381497Y-141510211D01*
X148181009Y-141449393D01*
X147996236Y-141350631D01*
X147834282Y-141217718D01*
X147701369Y-141055764D01*
X147602607Y-140870991D01*
X147541789Y-140670503D01*
X147521254Y-140462000D01*
X147541789Y-140253497D01*
X147602607Y-140053009D01*
X147701369Y-139868236D01*
X147834282Y-139706282D01*
X147996236Y-139573369D01*
X148181009Y-139474607D01*
X148381497Y-139413789D01*
X148537749Y-139398400D01*
X148642251Y-139398400D01*
X148798503Y-139413789D01*
X148798503Y-139413789D01*
G37*
G36*
X158704503Y-139413789D02*
X158904991Y-139474607D01*
X159089764Y-139573369D01*
X159251718Y-139706282D01*
X159384631Y-139868236D01*
X159483393Y-140053009D01*
X159544211Y-140253497D01*
X159564746Y-140462000D01*
X159544211Y-140670503D01*
X159483393Y-140870991D01*
X159384631Y-141055764D01*
X159251718Y-141217718D01*
X159089764Y-141350631D01*
X158904991Y-141449393D01*
X158704503Y-141510211D01*
X158548251Y-141525600D01*
X158443749Y-141525600D01*
X158287497Y-141510211D01*
X158087009Y-141449393D01*
X157902236Y-141350631D01*
X157740282Y-141217718D01*
X157607369Y-141055764D01*
X157508607Y-140870991D01*
X157447789Y-140670503D01*
X157427254Y-140462000D01*
X157447789Y-140253497D01*
X157508607Y-140053009D01*
X157607369Y-139868236D01*
X157740282Y-139706282D01*
X157902236Y-139573369D01*
X158087009Y-139474607D01*
X158287497Y-139413789D01*
X158443749Y-139398400D01*
X158548251Y-139398400D01*
X158704503Y-139413789D01*
X158704503Y-139413789D01*
G37*
G36*
X151338503Y-139413789D02*
X151538991Y-139474607D01*
X151723764Y-139573369D01*
X151885718Y-139706282D01*
X152018631Y-139868236D01*
X152117393Y-140053009D01*
X152178211Y-140253497D01*
X152198746Y-140462000D01*
X152178211Y-140670503D01*
X152117393Y-140870991D01*
X152018631Y-141055764D01*
X151885718Y-141217718D01*
X151723764Y-141350631D01*
X151538991Y-141449393D01*
X151338503Y-141510211D01*
X151182251Y-141525600D01*
X151077749Y-141525600D01*
X150921497Y-141510211D01*
X150721009Y-141449393D01*
X150536236Y-141350631D01*
X150374282Y-141217718D01*
X150241369Y-141055764D01*
X150142607Y-140870991D01*
X150081789Y-140670503D01*
X150061254Y-140462000D01*
X150081789Y-140253497D01*
X150142607Y-140053009D01*
X150241369Y-139868236D01*
X150374282Y-139706282D01*
X150536236Y-139573369D01*
X150721009Y-139474607D01*
X150921497Y-139413789D01*
X151077749Y-139398400D01*
X151182251Y-139398400D01*
X151338503Y-139413789D01*
X151338503Y-139413789D01*
G37*
G36*
X156164503Y-139413789D02*
X156364991Y-139474607D01*
X156549764Y-139573369D01*
X156711718Y-139706282D01*
X156844631Y-139868236D01*
X156943393Y-140053009D01*
X157004211Y-140253497D01*
X157024746Y-140462000D01*
X157004211Y-140670503D01*
X156943393Y-140870991D01*
X156844631Y-141055764D01*
X156711718Y-141217718D01*
X156549764Y-141350631D01*
X156364991Y-141449393D01*
X156164503Y-141510211D01*
X156008251Y-141525600D01*
X155903749Y-141525600D01*
X155747497Y-141510211D01*
X155547009Y-141449393D01*
X155362236Y-141350631D01*
X155200282Y-141217718D01*
X155067369Y-141055764D01*
X154968607Y-140870991D01*
X154907789Y-140670503D01*
X154887254Y-140462000D01*
X154907789Y-140253497D01*
X154968607Y-140053009D01*
X155067369Y-139868236D01*
X155200282Y-139706282D01*
X155362236Y-139573369D01*
X155547009Y-139474607D01*
X155747497Y-139413789D01*
X155903749Y-139398400D01*
X156008251Y-139398400D01*
X156164503Y-139413789D01*
X156164503Y-139413789D01*
G37*
G36*
X156164503Y-136873789D02*
X156364991Y-136934607D01*
X156549764Y-137033369D01*
X156711718Y-137166282D01*
X156844631Y-137328236D01*
X156943393Y-137513009D01*
X157004211Y-137713497D01*
X157024746Y-137922000D01*
X157004211Y-138130503D01*
X156943393Y-138330991D01*
X156844631Y-138515764D01*
X156711718Y-138677718D01*
X156549764Y-138810631D01*
X156364991Y-138909393D01*
X156164503Y-138970211D01*
X156008251Y-138985600D01*
X155903749Y-138985600D01*
X155747497Y-138970211D01*
X155547009Y-138909393D01*
X155362236Y-138810631D01*
X155200282Y-138677718D01*
X155067369Y-138515764D01*
X154968607Y-138330991D01*
X154907789Y-138130503D01*
X154887254Y-137922000D01*
X154907789Y-137713497D01*
X154968607Y-137513009D01*
X155067369Y-137328236D01*
X155200282Y-137166282D01*
X155362236Y-137033369D01*
X155547009Y-136934607D01*
X155747497Y-136873789D01*
X155903749Y-136858400D01*
X156008251Y-136858400D01*
X156164503Y-136873789D01*
X156164503Y-136873789D01*
G37*
G36*
X151338503Y-136873789D02*
X151538991Y-136934607D01*
X151723764Y-137033369D01*
X151885718Y-137166282D01*
X152018631Y-137328236D01*
X152117393Y-137513009D01*
X152178211Y-137713497D01*
X152198746Y-137922000D01*
X152178211Y-138130503D01*
X152117393Y-138330991D01*
X152018631Y-138515764D01*
X151885718Y-138677718D01*
X151723764Y-138810631D01*
X151538991Y-138909393D01*
X151338503Y-138970211D01*
X151182251Y-138985600D01*
X151077749Y-138985600D01*
X150921497Y-138970211D01*
X150721009Y-138909393D01*
X150536236Y-138810631D01*
X150374282Y-138677718D01*
X150241369Y-138515764D01*
X150142607Y-138330991D01*
X150081789Y-138130503D01*
X150061254Y-137922000D01*
X150081789Y-137713497D01*
X150142607Y-137513009D01*
X150241369Y-137328236D01*
X150374282Y-137166282D01*
X150536236Y-137033369D01*
X150721009Y-136934607D01*
X150921497Y-136873789D01*
X151077749Y-136858400D01*
X151182251Y-136858400D01*
X151338503Y-136873789D01*
X151338503Y-136873789D01*
G37*
G36*
X158704503Y-136873789D02*
X158904991Y-136934607D01*
X159089764Y-137033369D01*
X159251718Y-137166282D01*
X159384631Y-137328236D01*
X159483393Y-137513009D01*
X159544211Y-137713497D01*
X159564746Y-137922000D01*
X159544211Y-138130503D01*
X159483393Y-138330991D01*
X159384631Y-138515764D01*
X159251718Y-138677718D01*
X159089764Y-138810631D01*
X158904991Y-138909393D01*
X158704503Y-138970211D01*
X158548251Y-138985600D01*
X158443749Y-138985600D01*
X158287497Y-138970211D01*
X158087009Y-138909393D01*
X157902236Y-138810631D01*
X157740282Y-138677718D01*
X157607369Y-138515764D01*
X157508607Y-138330991D01*
X157447789Y-138130503D01*
X157427254Y-137922000D01*
X157447789Y-137713497D01*
X157508607Y-137513009D01*
X157607369Y-137328236D01*
X157740282Y-137166282D01*
X157902236Y-137033369D01*
X158087009Y-136934607D01*
X158287497Y-136873789D01*
X158443749Y-136858400D01*
X158548251Y-136858400D01*
X158704503Y-136873789D01*
X158704503Y-136873789D01*
G37*
G36*
X148798503Y-136873789D02*
X148998991Y-136934607D01*
X149183764Y-137033369D01*
X149345718Y-137166282D01*
X149478631Y-137328236D01*
X149577393Y-137513009D01*
X149638211Y-137713497D01*
X149658746Y-137922000D01*
X149638211Y-138130503D01*
X149577393Y-138330991D01*
X149478631Y-138515764D01*
X149345718Y-138677718D01*
X149183764Y-138810631D01*
X148998991Y-138909393D01*
X148798503Y-138970211D01*
X148642251Y-138985600D01*
X148537749Y-138985600D01*
X148381497Y-138970211D01*
X148181009Y-138909393D01*
X147996236Y-138810631D01*
X147834282Y-138677718D01*
X147701369Y-138515764D01*
X147602607Y-138330991D01*
X147541789Y-138130503D01*
X147521254Y-137922000D01*
X147541789Y-137713497D01*
X147602607Y-137513009D01*
X147701369Y-137328236D01*
X147834282Y-137166282D01*
X147996236Y-137033369D01*
X148181009Y-136934607D01*
X148381497Y-136873789D01*
X148537749Y-136858400D01*
X148642251Y-136858400D01*
X148798503Y-136873789D01*
X148798503Y-136873789D01*
G37*
G36*
X151338503Y-134333789D02*
X151538991Y-134394607D01*
X151723764Y-134493369D01*
X151885718Y-134626282D01*
X152018631Y-134788236D01*
X152117393Y-134973009D01*
X152178211Y-135173497D01*
X152198746Y-135382000D01*
X152178211Y-135590503D01*
X152117393Y-135790991D01*
X152018631Y-135975764D01*
X151885718Y-136137718D01*
X151723764Y-136270631D01*
X151538991Y-136369393D01*
X151338503Y-136430211D01*
X151182251Y-136445600D01*
X151077749Y-136445600D01*
X150921497Y-136430211D01*
X150721009Y-136369393D01*
X150536236Y-136270631D01*
X150374282Y-136137718D01*
X150241369Y-135975764D01*
X150142607Y-135790991D01*
X150081789Y-135590503D01*
X150061254Y-135382000D01*
X150081789Y-135173497D01*
X150142607Y-134973009D01*
X150241369Y-134788236D01*
X150374282Y-134626282D01*
X150536236Y-134493369D01*
X150721009Y-134394607D01*
X150921497Y-134333789D01*
X151077749Y-134318400D01*
X151182251Y-134318400D01*
X151338503Y-134333789D01*
X151338503Y-134333789D01*
G37*
G36*
X156164503Y-134333789D02*
X156364991Y-134394607D01*
X156549764Y-134493369D01*
X156711718Y-134626282D01*
X156844631Y-134788236D01*
X156943393Y-134973009D01*
X157004211Y-135173497D01*
X157024746Y-135382000D01*
X157004211Y-135590503D01*
X156943393Y-135790991D01*
X156844631Y-135975764D01*
X156711718Y-136137718D01*
X156549764Y-136270631D01*
X156364991Y-136369393D01*
X156164503Y-136430211D01*
X156008251Y-136445600D01*
X155903749Y-136445600D01*
X155747497Y-136430211D01*
X155547009Y-136369393D01*
X155362236Y-136270631D01*
X155200282Y-136137718D01*
X155067369Y-135975764D01*
X154968607Y-135790991D01*
X154907789Y-135590503D01*
X154887254Y-135382000D01*
X154907789Y-135173497D01*
X154968607Y-134973009D01*
X155067369Y-134788236D01*
X155200282Y-134626282D01*
X155362236Y-134493369D01*
X155547009Y-134394607D01*
X155747497Y-134333789D01*
X155903749Y-134318400D01*
X156008251Y-134318400D01*
X156164503Y-134333789D01*
X156164503Y-134333789D01*
G37*
G36*
X148798503Y-134333789D02*
X148998991Y-134394607D01*
X149183764Y-134493369D01*
X149345718Y-134626282D01*
X149478631Y-134788236D01*
X149577393Y-134973009D01*
X149638211Y-135173497D01*
X149658746Y-135382000D01*
X149638211Y-135590503D01*
X149577393Y-135790991D01*
X149478631Y-135975764D01*
X149345718Y-136137718D01*
X149183764Y-136270631D01*
X148998991Y-136369393D01*
X148798503Y-136430211D01*
X148642251Y-136445600D01*
X148537749Y-136445600D01*
X148381497Y-136430211D01*
X148181009Y-136369393D01*
X147996236Y-136270631D01*
X147834282Y-136137718D01*
X147701369Y-135975764D01*
X147602607Y-135790991D01*
X147541789Y-135590503D01*
X147521254Y-135382000D01*
X147541789Y-135173497D01*
X147602607Y-134973009D01*
X147701369Y-134788236D01*
X147834282Y-134626282D01*
X147996236Y-134493369D01*
X148181009Y-134394607D01*
X148381497Y-134333789D01*
X148537749Y-134318400D01*
X148642251Y-134318400D01*
X148798503Y-134333789D01*
X148798503Y-134333789D01*
G37*
G36*
X158704503Y-134333789D02*
X158904991Y-134394607D01*
X159089764Y-134493369D01*
X159251718Y-134626282D01*
X159384631Y-134788236D01*
X159483393Y-134973009D01*
X159544211Y-135173497D01*
X159564746Y-135382000D01*
X159544211Y-135590503D01*
X159483393Y-135790991D01*
X159384631Y-135975764D01*
X159251718Y-136137718D01*
X159089764Y-136270631D01*
X158904991Y-136369393D01*
X158704503Y-136430211D01*
X158548251Y-136445600D01*
X158443749Y-136445600D01*
X158287497Y-136430211D01*
X158087009Y-136369393D01*
X157902236Y-136270631D01*
X157740282Y-136137718D01*
X157607369Y-135975764D01*
X157508607Y-135790991D01*
X157447789Y-135590503D01*
X157427254Y-135382000D01*
X157447789Y-135173497D01*
X157508607Y-134973009D01*
X157607369Y-134788236D01*
X157740282Y-134626282D01*
X157902236Y-134493369D01*
X158087009Y-134394607D01*
X158287497Y-134333789D01*
X158443749Y-134318400D01*
X158548251Y-134318400D01*
X158704503Y-134333789D01*
X158704503Y-134333789D01*
G37*
G36*
X156164503Y-131793789D02*
X156364991Y-131854607D01*
X156549764Y-131953369D01*
X156711718Y-132086282D01*
X156844631Y-132248236D01*
X156943393Y-132433009D01*
X157004211Y-132633497D01*
X157024746Y-132842000D01*
X157004211Y-133050503D01*
X156943393Y-133250991D01*
X156844631Y-133435764D01*
X156711718Y-133597718D01*
X156549764Y-133730631D01*
X156364991Y-133829393D01*
X156164503Y-133890211D01*
X156008251Y-133905600D01*
X155903749Y-133905600D01*
X155747497Y-133890211D01*
X155547009Y-133829393D01*
X155362236Y-133730631D01*
X155200282Y-133597718D01*
X155067369Y-133435764D01*
X154968607Y-133250991D01*
X154907789Y-133050503D01*
X154887254Y-132842000D01*
X154907789Y-132633497D01*
X154968607Y-132433009D01*
X155067369Y-132248236D01*
X155200282Y-132086282D01*
X155362236Y-131953369D01*
X155547009Y-131854607D01*
X155747497Y-131793789D01*
X155903749Y-131778400D01*
X156008251Y-131778400D01*
X156164503Y-131793789D01*
X156164503Y-131793789D01*
G37*
G36*
X151338503Y-131793789D02*
X151538991Y-131854607D01*
X151723764Y-131953369D01*
X151885718Y-132086282D01*
X152018631Y-132248236D01*
X152117393Y-132433009D01*
X152178211Y-132633497D01*
X152198746Y-132842000D01*
X152178211Y-133050503D01*
X152117393Y-133250991D01*
X152018631Y-133435764D01*
X151885718Y-133597718D01*
X151723764Y-133730631D01*
X151538991Y-133829393D01*
X151338503Y-133890211D01*
X151182251Y-133905600D01*
X151077749Y-133905600D01*
X150921497Y-133890211D01*
X150721009Y-133829393D01*
X150536236Y-133730631D01*
X150374282Y-133597718D01*
X150241369Y-133435764D01*
X150142607Y-133250991D01*
X150081789Y-133050503D01*
X150061254Y-132842000D01*
X150081789Y-132633497D01*
X150142607Y-132433009D01*
X150241369Y-132248236D01*
X150374282Y-132086282D01*
X150536236Y-131953369D01*
X150721009Y-131854607D01*
X150921497Y-131793789D01*
X151077749Y-131778400D01*
X151182251Y-131778400D01*
X151338503Y-131793789D01*
X151338503Y-131793789D01*
G37*
G36*
X148798503Y-131793789D02*
X148998991Y-131854607D01*
X149183764Y-131953369D01*
X149345718Y-132086282D01*
X149478631Y-132248236D01*
X149577393Y-132433009D01*
X149638211Y-132633497D01*
X149658746Y-132842000D01*
X149638211Y-133050503D01*
X149577393Y-133250991D01*
X149478631Y-133435764D01*
X149345718Y-133597718D01*
X149183764Y-133730631D01*
X148998991Y-133829393D01*
X148798503Y-133890211D01*
X148642251Y-133905600D01*
X148537749Y-133905600D01*
X148381497Y-133890211D01*
X148181009Y-133829393D01*
X147996236Y-133730631D01*
X147834282Y-133597718D01*
X147701369Y-133435764D01*
X147602607Y-133250991D01*
X147541789Y-133050503D01*
X147521254Y-132842000D01*
X147541789Y-132633497D01*
X147602607Y-132433009D01*
X147701369Y-132248236D01*
X147834282Y-132086282D01*
X147996236Y-131953369D01*
X148181009Y-131854607D01*
X148381497Y-131793789D01*
X148537749Y-131778400D01*
X148642251Y-131778400D01*
X148798503Y-131793789D01*
X148798503Y-131793789D01*
G37*
G36*
X158704503Y-131793789D02*
X158904991Y-131854607D01*
X159089764Y-131953369D01*
X159251718Y-132086282D01*
X159384631Y-132248236D01*
X159483393Y-132433009D01*
X159544211Y-132633497D01*
X159564746Y-132842000D01*
X159544211Y-133050503D01*
X159483393Y-133250991D01*
X159384631Y-133435764D01*
X159251718Y-133597718D01*
X159089764Y-133730631D01*
X158904991Y-133829393D01*
X158704503Y-133890211D01*
X158548251Y-133905600D01*
X158443749Y-133905600D01*
X158287497Y-133890211D01*
X158087009Y-133829393D01*
X157902236Y-133730631D01*
X157740282Y-133597718D01*
X157607369Y-133435764D01*
X157508607Y-133250991D01*
X157447789Y-133050503D01*
X157427254Y-132842000D01*
X157447789Y-132633497D01*
X157508607Y-132433009D01*
X157607369Y-132248236D01*
X157740282Y-132086282D01*
X157902236Y-131953369D01*
X158087009Y-131854607D01*
X158287497Y-131793789D01*
X158443749Y-131778400D01*
X158548251Y-131778400D01*
X158704503Y-131793789D01*
X158704503Y-131793789D01*
G37*
G36*
X148798503Y-129253789D02*
X148998991Y-129314607D01*
X149183764Y-129413369D01*
X149345718Y-129546282D01*
X149478631Y-129708236D01*
X149577393Y-129893009D01*
X149638211Y-130093497D01*
X149658746Y-130302000D01*
X149638211Y-130510503D01*
X149577393Y-130710991D01*
X149478631Y-130895764D01*
X149345718Y-131057718D01*
X149183764Y-131190631D01*
X148998991Y-131289393D01*
X148798503Y-131350211D01*
X148642251Y-131365600D01*
X148537749Y-131365600D01*
X148381497Y-131350211D01*
X148181009Y-131289393D01*
X147996236Y-131190631D01*
X147834282Y-131057718D01*
X147701369Y-130895764D01*
X147602607Y-130710991D01*
X147541789Y-130510503D01*
X147521254Y-130302000D01*
X147541789Y-130093497D01*
X147602607Y-129893009D01*
X147701369Y-129708236D01*
X147834282Y-129546282D01*
X147996236Y-129413369D01*
X148181009Y-129314607D01*
X148381497Y-129253789D01*
X148537749Y-129238400D01*
X148642251Y-129238400D01*
X148798503Y-129253789D01*
X148798503Y-129253789D01*
G37*
G36*
X156164503Y-129253789D02*
X156364991Y-129314607D01*
X156549764Y-129413369D01*
X156711718Y-129546282D01*
X156844631Y-129708236D01*
X156943393Y-129893009D01*
X157004211Y-130093497D01*
X157024746Y-130302000D01*
X157004211Y-130510503D01*
X156943393Y-130710991D01*
X156844631Y-130895764D01*
X156711718Y-131057718D01*
X156549764Y-131190631D01*
X156364991Y-131289393D01*
X156164503Y-131350211D01*
X156008251Y-131365600D01*
X155903749Y-131365600D01*
X155747497Y-131350211D01*
X155547009Y-131289393D01*
X155362236Y-131190631D01*
X155200282Y-131057718D01*
X155067369Y-130895764D01*
X154968607Y-130710991D01*
X154907789Y-130510503D01*
X154887254Y-130302000D01*
X154907789Y-130093497D01*
X154968607Y-129893009D01*
X155067369Y-129708236D01*
X155200282Y-129546282D01*
X155362236Y-129413369D01*
X155547009Y-129314607D01*
X155747497Y-129253789D01*
X155903749Y-129238400D01*
X156008251Y-129238400D01*
X156164503Y-129253789D01*
X156164503Y-129253789D01*
G37*
G36*
X158704503Y-129253789D02*
X158904991Y-129314607D01*
X159089764Y-129413369D01*
X159251718Y-129546282D01*
X159384631Y-129708236D01*
X159483393Y-129893009D01*
X159544211Y-130093497D01*
X159564746Y-130302000D01*
X159544211Y-130510503D01*
X159483393Y-130710991D01*
X159384631Y-130895764D01*
X159251718Y-131057718D01*
X159089764Y-131190631D01*
X158904991Y-131289393D01*
X158704503Y-131350211D01*
X158548251Y-131365600D01*
X158443749Y-131365600D01*
X158287497Y-131350211D01*
X158087009Y-131289393D01*
X157902236Y-131190631D01*
X157740282Y-131057718D01*
X157607369Y-130895764D01*
X157508607Y-130710991D01*
X157447789Y-130510503D01*
X157427254Y-130302000D01*
X157447789Y-130093497D01*
X157508607Y-129893009D01*
X157607369Y-129708236D01*
X157740282Y-129546282D01*
X157902236Y-129413369D01*
X158087009Y-129314607D01*
X158287497Y-129253789D01*
X158443749Y-129238400D01*
X158548251Y-129238400D01*
X158704503Y-129253789D01*
X158704503Y-129253789D01*
G37*
G36*
X151338503Y-129253789D02*
X151538991Y-129314607D01*
X151723764Y-129413369D01*
X151885718Y-129546282D01*
X152018631Y-129708236D01*
X152117393Y-129893009D01*
X152178211Y-130093497D01*
X152198746Y-130302000D01*
X152178211Y-130510503D01*
X152117393Y-130710991D01*
X152018631Y-130895764D01*
X151885718Y-131057718D01*
X151723764Y-131190631D01*
X151538991Y-131289393D01*
X151338503Y-131350211D01*
X151182251Y-131365600D01*
X151077749Y-131365600D01*
X150921497Y-131350211D01*
X150721009Y-131289393D01*
X150536236Y-131190631D01*
X150374282Y-131057718D01*
X150241369Y-130895764D01*
X150142607Y-130710991D01*
X150081789Y-130510503D01*
X150061254Y-130302000D01*
X150081789Y-130093497D01*
X150142607Y-129893009D01*
X150241369Y-129708236D01*
X150374282Y-129546282D01*
X150536236Y-129413369D01*
X150721009Y-129314607D01*
X150921497Y-129253789D01*
X151077749Y-129238400D01*
X151182251Y-129238400D01*
X151338503Y-129253789D01*
X151338503Y-129253789D01*
G37*
G36*
X151338503Y-126713789D02*
X151538991Y-126774607D01*
X151723764Y-126873369D01*
X151885718Y-127006282D01*
X152018631Y-127168236D01*
X152117393Y-127353009D01*
X152178211Y-127553497D01*
X152198746Y-127762000D01*
X152178211Y-127970503D01*
X152117393Y-128170991D01*
X152018631Y-128355764D01*
X151885718Y-128517718D01*
X151723764Y-128650631D01*
X151538991Y-128749393D01*
X151338503Y-128810211D01*
X151182251Y-128825600D01*
X151077749Y-128825600D01*
X150921497Y-128810211D01*
X150721009Y-128749393D01*
X150536236Y-128650631D01*
X150374282Y-128517718D01*
X150241369Y-128355764D01*
X150142607Y-128170991D01*
X150081789Y-127970503D01*
X150061254Y-127762000D01*
X150081789Y-127553497D01*
X150142607Y-127353009D01*
X150241369Y-127168236D01*
X150374282Y-127006282D01*
X150536236Y-126873369D01*
X150721009Y-126774607D01*
X150921497Y-126713789D01*
X151077749Y-126698400D01*
X151182251Y-126698400D01*
X151338503Y-126713789D01*
X151338503Y-126713789D01*
G37*
G36*
X156164503Y-126713789D02*
X156364991Y-126774607D01*
X156549764Y-126873369D01*
X156711718Y-127006282D01*
X156844631Y-127168236D01*
X156943393Y-127353009D01*
X157004211Y-127553497D01*
X157024746Y-127762000D01*
X157004211Y-127970503D01*
X156943393Y-128170991D01*
X156844631Y-128355764D01*
X156711718Y-128517718D01*
X156549764Y-128650631D01*
X156364991Y-128749393D01*
X156164503Y-128810211D01*
X156008251Y-128825600D01*
X155903749Y-128825600D01*
X155747497Y-128810211D01*
X155547009Y-128749393D01*
X155362236Y-128650631D01*
X155200282Y-128517718D01*
X155067369Y-128355764D01*
X154968607Y-128170991D01*
X154907789Y-127970503D01*
X154887254Y-127762000D01*
X154907789Y-127553497D01*
X154968607Y-127353009D01*
X155067369Y-127168236D01*
X155200282Y-127006282D01*
X155362236Y-126873369D01*
X155547009Y-126774607D01*
X155747497Y-126713789D01*
X155903749Y-126698400D01*
X156008251Y-126698400D01*
X156164503Y-126713789D01*
X156164503Y-126713789D01*
G37*
G36*
X148798503Y-126713789D02*
X148998991Y-126774607D01*
X149183764Y-126873369D01*
X149345718Y-127006282D01*
X149478631Y-127168236D01*
X149577393Y-127353009D01*
X149638211Y-127553497D01*
X149658746Y-127762000D01*
X149638211Y-127970503D01*
X149577393Y-128170991D01*
X149478631Y-128355764D01*
X149345718Y-128517718D01*
X149183764Y-128650631D01*
X148998991Y-128749393D01*
X148798503Y-128810211D01*
X148642251Y-128825600D01*
X148537749Y-128825600D01*
X148381497Y-128810211D01*
X148181009Y-128749393D01*
X147996236Y-128650631D01*
X147834282Y-128517718D01*
X147701369Y-128355764D01*
X147602607Y-128170991D01*
X147541789Y-127970503D01*
X147521254Y-127762000D01*
X147541789Y-127553497D01*
X147602607Y-127353009D01*
X147701369Y-127168236D01*
X147834282Y-127006282D01*
X147996236Y-126873369D01*
X148181009Y-126774607D01*
X148381497Y-126713789D01*
X148537749Y-126698400D01*
X148642251Y-126698400D01*
X148798503Y-126713789D01*
X148798503Y-126713789D01*
G37*
G36*
X158704503Y-126713789D02*
X158904991Y-126774607D01*
X159089764Y-126873369D01*
X159251718Y-127006282D01*
X159384631Y-127168236D01*
X159483393Y-127353009D01*
X159544211Y-127553497D01*
X159564746Y-127762000D01*
X159544211Y-127970503D01*
X159483393Y-128170991D01*
X159384631Y-128355764D01*
X159251718Y-128517718D01*
X159089764Y-128650631D01*
X158904991Y-128749393D01*
X158704503Y-128810211D01*
X158548251Y-128825600D01*
X158443749Y-128825600D01*
X158287497Y-128810211D01*
X158087009Y-128749393D01*
X157902236Y-128650631D01*
X157740282Y-128517718D01*
X157607369Y-128355764D01*
X157508607Y-128170991D01*
X157447789Y-127970503D01*
X157427254Y-127762000D01*
X157447789Y-127553497D01*
X157508607Y-127353009D01*
X157607369Y-127168236D01*
X157740282Y-127006282D01*
X157902236Y-126873369D01*
X158087009Y-126774607D01*
X158287497Y-126713789D01*
X158443749Y-126698400D01*
X158548251Y-126698400D01*
X158704503Y-126713789D01*
X158704503Y-126713789D01*
G37*
G36*
X148798503Y-124173789D02*
X148998991Y-124234607D01*
X149183764Y-124333369D01*
X149345718Y-124466282D01*
X149478631Y-124628236D01*
X149577393Y-124813009D01*
X149638211Y-125013497D01*
X149658746Y-125222000D01*
X149638211Y-125430503D01*
X149577393Y-125630991D01*
X149478631Y-125815764D01*
X149345718Y-125977718D01*
X149183764Y-126110631D01*
X148998991Y-126209393D01*
X148798503Y-126270211D01*
X148642251Y-126285600D01*
X148537749Y-126285600D01*
X148381497Y-126270211D01*
X148181009Y-126209393D01*
X147996236Y-126110631D01*
X147834282Y-125977718D01*
X147701369Y-125815764D01*
X147602607Y-125630991D01*
X147541789Y-125430503D01*
X147521254Y-125222000D01*
X147541789Y-125013497D01*
X147602607Y-124813009D01*
X147701369Y-124628236D01*
X147834282Y-124466282D01*
X147996236Y-124333369D01*
X148181009Y-124234607D01*
X148381497Y-124173789D01*
X148537749Y-124158400D01*
X148642251Y-124158400D01*
X148798503Y-124173789D01*
X148798503Y-124173789D01*
G37*
G36*
X158704503Y-124173789D02*
X158904991Y-124234607D01*
X159089764Y-124333369D01*
X159251718Y-124466282D01*
X159384631Y-124628236D01*
X159483393Y-124813009D01*
X159544211Y-125013497D01*
X159564746Y-125222000D01*
X159544211Y-125430503D01*
X159483393Y-125630991D01*
X159384631Y-125815764D01*
X159251718Y-125977718D01*
X159089764Y-126110631D01*
X158904991Y-126209393D01*
X158704503Y-126270211D01*
X158548251Y-126285600D01*
X158443749Y-126285600D01*
X158287497Y-126270211D01*
X158087009Y-126209393D01*
X157902236Y-126110631D01*
X157740282Y-125977718D01*
X157607369Y-125815764D01*
X157508607Y-125630991D01*
X157447789Y-125430503D01*
X157427254Y-125222000D01*
X157447789Y-125013497D01*
X157508607Y-124813009D01*
X157607369Y-124628236D01*
X157740282Y-124466282D01*
X157902236Y-124333369D01*
X158087009Y-124234607D01*
X158287497Y-124173789D01*
X158443749Y-124158400D01*
X158548251Y-124158400D01*
X158704503Y-124173789D01*
X158704503Y-124173789D01*
G37*
G36*
X156164503Y-124173789D02*
X156364991Y-124234607D01*
X156549764Y-124333369D01*
X156711718Y-124466282D01*
X156844631Y-124628236D01*
X156943393Y-124813009D01*
X157004211Y-125013497D01*
X157024746Y-125222000D01*
X157004211Y-125430503D01*
X156943393Y-125630991D01*
X156844631Y-125815764D01*
X156711718Y-125977718D01*
X156549764Y-126110631D01*
X156364991Y-126209393D01*
X156164503Y-126270211D01*
X156008251Y-126285600D01*
X155903749Y-126285600D01*
X155747497Y-126270211D01*
X155547009Y-126209393D01*
X155362236Y-126110631D01*
X155200282Y-125977718D01*
X155067369Y-125815764D01*
X154968607Y-125630991D01*
X154907789Y-125430503D01*
X154887254Y-125222000D01*
X154907789Y-125013497D01*
X154968607Y-124813009D01*
X155067369Y-124628236D01*
X155200282Y-124466282D01*
X155362236Y-124333369D01*
X155547009Y-124234607D01*
X155747497Y-124173789D01*
X155903749Y-124158400D01*
X156008251Y-124158400D01*
X156164503Y-124173789D01*
X156164503Y-124173789D01*
G37*
G36*
X151338503Y-124173789D02*
X151538991Y-124234607D01*
X151723764Y-124333369D01*
X151885718Y-124466282D01*
X152018631Y-124628236D01*
X152117393Y-124813009D01*
X152178211Y-125013497D01*
X152198746Y-125222000D01*
X152178211Y-125430503D01*
X152117393Y-125630991D01*
X152018631Y-125815764D01*
X151885718Y-125977718D01*
X151723764Y-126110631D01*
X151538991Y-126209393D01*
X151338503Y-126270211D01*
X151182251Y-126285600D01*
X151077749Y-126285600D01*
X150921497Y-126270211D01*
X150721009Y-126209393D01*
X150536236Y-126110631D01*
X150374282Y-125977718D01*
X150241369Y-125815764D01*
X150142607Y-125630991D01*
X150081789Y-125430503D01*
X150061254Y-125222000D01*
X150081789Y-125013497D01*
X150142607Y-124813009D01*
X150241369Y-124628236D01*
X150374282Y-124466282D01*
X150536236Y-124333369D01*
X150721009Y-124234607D01*
X150921497Y-124173789D01*
X151077749Y-124158400D01*
X151182251Y-124158400D01*
X151338503Y-124173789D01*
X151338503Y-124173789D01*
G37*
G36*
X158704503Y-121633789D02*
X158904991Y-121694607D01*
X159089764Y-121793369D01*
X159251718Y-121926282D01*
X159384631Y-122088236D01*
X159483393Y-122273009D01*
X159544211Y-122473497D01*
X159564746Y-122682000D01*
X159544211Y-122890503D01*
X159483393Y-123090991D01*
X159384631Y-123275764D01*
X159251718Y-123437718D01*
X159089764Y-123570631D01*
X158904991Y-123669393D01*
X158704503Y-123730211D01*
X158548251Y-123745600D01*
X158443749Y-123745600D01*
X158287497Y-123730211D01*
X158087009Y-123669393D01*
X157902236Y-123570631D01*
X157740282Y-123437718D01*
X157607369Y-123275764D01*
X157508607Y-123090991D01*
X157447789Y-122890503D01*
X157427254Y-122682000D01*
X157447789Y-122473497D01*
X157508607Y-122273009D01*
X157607369Y-122088236D01*
X157740282Y-121926282D01*
X157902236Y-121793369D01*
X158087009Y-121694607D01*
X158287497Y-121633789D01*
X158443749Y-121618400D01*
X158548251Y-121618400D01*
X158704503Y-121633789D01*
X158704503Y-121633789D01*
G37*
G36*
X156164503Y-121633789D02*
X156364991Y-121694607D01*
X156549764Y-121793369D01*
X156711718Y-121926282D01*
X156844631Y-122088236D01*
X156943393Y-122273009D01*
X157004211Y-122473497D01*
X157024746Y-122682000D01*
X157004211Y-122890503D01*
X156943393Y-123090991D01*
X156844631Y-123275764D01*
X156711718Y-123437718D01*
X156549764Y-123570631D01*
X156364991Y-123669393D01*
X156164503Y-123730211D01*
X156008251Y-123745600D01*
X155903749Y-123745600D01*
X155747497Y-123730211D01*
X155547009Y-123669393D01*
X155362236Y-123570631D01*
X155200282Y-123437718D01*
X155067369Y-123275764D01*
X154968607Y-123090991D01*
X154907789Y-122890503D01*
X154887254Y-122682000D01*
X154907789Y-122473497D01*
X154968607Y-122273009D01*
X155067369Y-122088236D01*
X155200282Y-121926282D01*
X155362236Y-121793369D01*
X155547009Y-121694607D01*
X155747497Y-121633789D01*
X155903749Y-121618400D01*
X156008251Y-121618400D01*
X156164503Y-121633789D01*
X156164503Y-121633789D01*
G37*
G36*
X151338503Y-121633789D02*
X151538991Y-121694607D01*
X151723764Y-121793369D01*
X151885718Y-121926282D01*
X152018631Y-122088236D01*
X152117393Y-122273009D01*
X152178211Y-122473497D01*
X152198746Y-122682000D01*
X152178211Y-122890503D01*
X152117393Y-123090991D01*
X152018631Y-123275764D01*
X151885718Y-123437718D01*
X151723764Y-123570631D01*
X151538991Y-123669393D01*
X151338503Y-123730211D01*
X151182251Y-123745600D01*
X151077749Y-123745600D01*
X150921497Y-123730211D01*
X150721009Y-123669393D01*
X150536236Y-123570631D01*
X150374282Y-123437718D01*
X150241369Y-123275764D01*
X150142607Y-123090991D01*
X150081789Y-122890503D01*
X150061254Y-122682000D01*
X150081789Y-122473497D01*
X150142607Y-122273009D01*
X150241369Y-122088236D01*
X150374282Y-121926282D01*
X150536236Y-121793369D01*
X150721009Y-121694607D01*
X150921497Y-121633789D01*
X151077749Y-121618400D01*
X151182251Y-121618400D01*
X151338503Y-121633789D01*
X151338503Y-121633789D01*
G37*
G36*
X148798503Y-121633789D02*
X148998991Y-121694607D01*
X149183764Y-121793369D01*
X149345718Y-121926282D01*
X149478631Y-122088236D01*
X149577393Y-122273009D01*
X149638211Y-122473497D01*
X149658746Y-122682000D01*
X149638211Y-122890503D01*
X149577393Y-123090991D01*
X149478631Y-123275764D01*
X149345718Y-123437718D01*
X149183764Y-123570631D01*
X148998991Y-123669393D01*
X148798503Y-123730211D01*
X148642251Y-123745600D01*
X148537749Y-123745600D01*
X148381497Y-123730211D01*
X148181009Y-123669393D01*
X147996236Y-123570631D01*
X147834282Y-123437718D01*
X147701369Y-123275764D01*
X147602607Y-123090991D01*
X147541789Y-122890503D01*
X147521254Y-122682000D01*
X147541789Y-122473497D01*
X147602607Y-122273009D01*
X147701369Y-122088236D01*
X147834282Y-121926282D01*
X147996236Y-121793369D01*
X148181009Y-121694607D01*
X148381497Y-121633789D01*
X148537749Y-121618400D01*
X148642251Y-121618400D01*
X148798503Y-121633789D01*
X148798503Y-121633789D01*
G37*
G36*
X148798503Y-119093789D02*
X148998991Y-119154607D01*
X149183764Y-119253369D01*
X149345718Y-119386282D01*
X149478631Y-119548236D01*
X149577393Y-119733009D01*
X149638211Y-119933497D01*
X149658746Y-120142000D01*
X149638211Y-120350503D01*
X149577393Y-120550991D01*
X149478631Y-120735764D01*
X149345718Y-120897718D01*
X149183764Y-121030631D01*
X148998991Y-121129393D01*
X148798503Y-121190211D01*
X148642251Y-121205600D01*
X148537749Y-121205600D01*
X148381497Y-121190211D01*
X148181009Y-121129393D01*
X147996236Y-121030631D01*
X147834282Y-120897718D01*
X147701369Y-120735764D01*
X147602607Y-120550991D01*
X147541789Y-120350503D01*
X147521254Y-120142000D01*
X147541789Y-119933497D01*
X147602607Y-119733009D01*
X147701369Y-119548236D01*
X147834282Y-119386282D01*
X147996236Y-119253369D01*
X148181009Y-119154607D01*
X148381497Y-119093789D01*
X148537749Y-119078400D01*
X148642251Y-119078400D01*
X148798503Y-119093789D01*
X148798503Y-119093789D01*
G37*
G36*
X151338503Y-119093789D02*
X151538991Y-119154607D01*
X151723764Y-119253369D01*
X151885718Y-119386282D01*
X152018631Y-119548236D01*
X152117393Y-119733009D01*
X152178211Y-119933497D01*
X152198746Y-120142000D01*
X152178211Y-120350503D01*
X152117393Y-120550991D01*
X152018631Y-120735764D01*
X151885718Y-120897718D01*
X151723764Y-121030631D01*
X151538991Y-121129393D01*
X151338503Y-121190211D01*
X151182251Y-121205600D01*
X151077749Y-121205600D01*
X150921497Y-121190211D01*
X150721009Y-121129393D01*
X150536236Y-121030631D01*
X150374282Y-120897718D01*
X150241369Y-120735764D01*
X150142607Y-120550991D01*
X150081789Y-120350503D01*
X150061254Y-120142000D01*
X150081789Y-119933497D01*
X150142607Y-119733009D01*
X150241369Y-119548236D01*
X150374282Y-119386282D01*
X150536236Y-119253369D01*
X150721009Y-119154607D01*
X150921497Y-119093789D01*
X151077749Y-119078400D01*
X151182251Y-119078400D01*
X151338503Y-119093789D01*
X151338503Y-119093789D01*
G37*
G36*
X158704503Y-119093789D02*
X158904991Y-119154607D01*
X159089764Y-119253369D01*
X159251718Y-119386282D01*
X159384631Y-119548236D01*
X159483393Y-119733009D01*
X159544211Y-119933497D01*
X159564746Y-120142000D01*
X159544211Y-120350503D01*
X159483393Y-120550991D01*
X159384631Y-120735764D01*
X159251718Y-120897718D01*
X159089764Y-121030631D01*
X158904991Y-121129393D01*
X158704503Y-121190211D01*
X158548251Y-121205600D01*
X158443749Y-121205600D01*
X158287497Y-121190211D01*
X158087009Y-121129393D01*
X157902236Y-121030631D01*
X157740282Y-120897718D01*
X157607369Y-120735764D01*
X157508607Y-120550991D01*
X157447789Y-120350503D01*
X157427254Y-120142000D01*
X157447789Y-119933497D01*
X157508607Y-119733009D01*
X157607369Y-119548236D01*
X157740282Y-119386282D01*
X157902236Y-119253369D01*
X158087009Y-119154607D01*
X158287497Y-119093789D01*
X158443749Y-119078400D01*
X158548251Y-119078400D01*
X158704503Y-119093789D01*
X158704503Y-119093789D01*
G37*
G36*
X156164503Y-119093789D02*
X156364991Y-119154607D01*
X156549764Y-119253369D01*
X156711718Y-119386282D01*
X156844631Y-119548236D01*
X156943393Y-119733009D01*
X157004211Y-119933497D01*
X157024746Y-120142000D01*
X157004211Y-120350503D01*
X156943393Y-120550991D01*
X156844631Y-120735764D01*
X156711718Y-120897718D01*
X156549764Y-121030631D01*
X156364991Y-121129393D01*
X156164503Y-121190211D01*
X156008251Y-121205600D01*
X155903749Y-121205600D01*
X155747497Y-121190211D01*
X155547009Y-121129393D01*
X155362236Y-121030631D01*
X155200282Y-120897718D01*
X155067369Y-120735764D01*
X154968607Y-120550991D01*
X154907789Y-120350503D01*
X154887254Y-120142000D01*
X154907789Y-119933497D01*
X154968607Y-119733009D01*
X155067369Y-119548236D01*
X155200282Y-119386282D01*
X155362236Y-119253369D01*
X155547009Y-119154607D01*
X155747497Y-119093789D01*
X155903749Y-119078400D01*
X156008251Y-119078400D01*
X156164503Y-119093789D01*
X156164503Y-119093789D01*
G37*
G36*
X158704503Y-116553789D02*
X158904991Y-116614607D01*
X159089764Y-116713369D01*
X159251718Y-116846282D01*
X159384631Y-117008236D01*
X159483393Y-117193009D01*
X159544211Y-117393497D01*
X159564746Y-117602000D01*
X159544211Y-117810503D01*
X159483393Y-118010991D01*
X159384631Y-118195764D01*
X159251718Y-118357718D01*
X159089764Y-118490631D01*
X158904991Y-118589393D01*
X158704503Y-118650211D01*
X158548251Y-118665600D01*
X158443749Y-118665600D01*
X158287497Y-118650211D01*
X158087009Y-118589393D01*
X157902236Y-118490631D01*
X157740282Y-118357718D01*
X157607369Y-118195764D01*
X157508607Y-118010991D01*
X157447789Y-117810503D01*
X157427254Y-117602000D01*
X157447789Y-117393497D01*
X157508607Y-117193009D01*
X157607369Y-117008236D01*
X157740282Y-116846282D01*
X157902236Y-116713369D01*
X158087009Y-116614607D01*
X158287497Y-116553789D01*
X158443749Y-116538400D01*
X158548251Y-116538400D01*
X158704503Y-116553789D01*
X158704503Y-116553789D01*
G37*
G36*
X148798503Y-116553789D02*
X148998991Y-116614607D01*
X149183764Y-116713369D01*
X149345718Y-116846282D01*
X149478631Y-117008236D01*
X149577393Y-117193009D01*
X149638211Y-117393497D01*
X149658746Y-117602000D01*
X149638211Y-117810503D01*
X149577393Y-118010991D01*
X149478631Y-118195764D01*
X149345718Y-118357718D01*
X149183764Y-118490631D01*
X148998991Y-118589393D01*
X148798503Y-118650211D01*
X148642251Y-118665600D01*
X148537749Y-118665600D01*
X148381497Y-118650211D01*
X148181009Y-118589393D01*
X147996236Y-118490631D01*
X147834282Y-118357718D01*
X147701369Y-118195764D01*
X147602607Y-118010991D01*
X147541789Y-117810503D01*
X147521254Y-117602000D01*
X147541789Y-117393497D01*
X147602607Y-117193009D01*
X147701369Y-117008236D01*
X147834282Y-116846282D01*
X147996236Y-116713369D01*
X148181009Y-116614607D01*
X148381497Y-116553789D01*
X148537749Y-116538400D01*
X148642251Y-116538400D01*
X148798503Y-116553789D01*
X148798503Y-116553789D01*
G37*
G36*
X156164503Y-116553789D02*
X156364991Y-116614607D01*
X156549764Y-116713369D01*
X156711718Y-116846282D01*
X156844631Y-117008236D01*
X156943393Y-117193009D01*
X157004211Y-117393497D01*
X157024746Y-117602000D01*
X157004211Y-117810503D01*
X156943393Y-118010991D01*
X156844631Y-118195764D01*
X156711718Y-118357718D01*
X156549764Y-118490631D01*
X156364991Y-118589393D01*
X156164503Y-118650211D01*
X156008251Y-118665600D01*
X155903749Y-118665600D01*
X155747497Y-118650211D01*
X155547009Y-118589393D01*
X155362236Y-118490631D01*
X155200282Y-118357718D01*
X155067369Y-118195764D01*
X154968607Y-118010991D01*
X154907789Y-117810503D01*
X154887254Y-117602000D01*
X154907789Y-117393497D01*
X154968607Y-117193009D01*
X155067369Y-117008236D01*
X155200282Y-116846282D01*
X155362236Y-116713369D01*
X155547009Y-116614607D01*
X155747497Y-116553789D01*
X155903749Y-116538400D01*
X156008251Y-116538400D01*
X156164503Y-116553789D01*
X156164503Y-116553789D01*
G37*
G36*
X151338503Y-116553789D02*
X151538991Y-116614607D01*
X151723764Y-116713369D01*
X151885718Y-116846282D01*
X152018631Y-117008236D01*
X152117393Y-117193009D01*
X152178211Y-117393497D01*
X152198746Y-117602000D01*
X152178211Y-117810503D01*
X152117393Y-118010991D01*
X152018631Y-118195764D01*
X151885718Y-118357718D01*
X151723764Y-118490631D01*
X151538991Y-118589393D01*
X151338503Y-118650211D01*
X151182251Y-118665600D01*
X151077749Y-118665600D01*
X150921497Y-118650211D01*
X150721009Y-118589393D01*
X150536236Y-118490631D01*
X150374282Y-118357718D01*
X150241369Y-118195764D01*
X150142607Y-118010991D01*
X150081789Y-117810503D01*
X150061254Y-117602000D01*
X150081789Y-117393497D01*
X150142607Y-117193009D01*
X150241369Y-117008236D01*
X150374282Y-116846282D01*
X150536236Y-116713369D01*
X150721009Y-116614607D01*
X150921497Y-116553789D01*
X151077749Y-116538400D01*
X151182251Y-116538400D01*
X151338503Y-116553789D01*
X151338503Y-116553789D01*
G37*
G36*
X148798503Y-114013789D02*
X148998991Y-114074607D01*
X149183764Y-114173369D01*
X149345718Y-114306282D01*
X149478631Y-114468236D01*
X149577393Y-114653009D01*
X149638211Y-114853497D01*
X149658746Y-115062000D01*
X149638211Y-115270503D01*
X149577393Y-115470991D01*
X149478631Y-115655764D01*
X149345718Y-115817718D01*
X149183764Y-115950631D01*
X148998991Y-116049393D01*
X148798503Y-116110211D01*
X148642251Y-116125600D01*
X148537749Y-116125600D01*
X148381497Y-116110211D01*
X148181009Y-116049393D01*
X147996236Y-115950631D01*
X147834282Y-115817718D01*
X147701369Y-115655764D01*
X147602607Y-115470991D01*
X147541789Y-115270503D01*
X147521254Y-115062000D01*
X147541789Y-114853497D01*
X147602607Y-114653009D01*
X147701369Y-114468236D01*
X147834282Y-114306282D01*
X147996236Y-114173369D01*
X148181009Y-114074607D01*
X148381497Y-114013789D01*
X148537749Y-113998400D01*
X148642251Y-113998400D01*
X148798503Y-114013789D01*
X148798503Y-114013789D01*
G37*
G36*
X158704503Y-114013789D02*
X158904991Y-114074607D01*
X159089764Y-114173369D01*
X159251718Y-114306282D01*
X159384631Y-114468236D01*
X159483393Y-114653009D01*
X159544211Y-114853497D01*
X159564746Y-115062000D01*
X159544211Y-115270503D01*
X159483393Y-115470991D01*
X159384631Y-115655764D01*
X159251718Y-115817718D01*
X159089764Y-115950631D01*
X158904991Y-116049393D01*
X158704503Y-116110211D01*
X158548251Y-116125600D01*
X158443749Y-116125600D01*
X158287497Y-116110211D01*
X158087009Y-116049393D01*
X157902236Y-115950631D01*
X157740282Y-115817718D01*
X157607369Y-115655764D01*
X157508607Y-115470991D01*
X157447789Y-115270503D01*
X157427254Y-115062000D01*
X157447789Y-114853497D01*
X157508607Y-114653009D01*
X157607369Y-114468236D01*
X157740282Y-114306282D01*
X157902236Y-114173369D01*
X158087009Y-114074607D01*
X158287497Y-114013789D01*
X158443749Y-113998400D01*
X158548251Y-113998400D01*
X158704503Y-114013789D01*
X158704503Y-114013789D01*
G37*
G36*
X151338503Y-114013789D02*
X151538991Y-114074607D01*
X151723764Y-114173369D01*
X151885718Y-114306282D01*
X152018631Y-114468236D01*
X152117393Y-114653009D01*
X152178211Y-114853497D01*
X152198746Y-115062000D01*
X152178211Y-115270503D01*
X152117393Y-115470991D01*
X152018631Y-115655764D01*
X151885718Y-115817718D01*
X151723764Y-115950631D01*
X151538991Y-116049393D01*
X151338503Y-116110211D01*
X151182251Y-116125600D01*
X151077749Y-116125600D01*
X150921497Y-116110211D01*
X150721009Y-116049393D01*
X150536236Y-115950631D01*
X150374282Y-115817718D01*
X150241369Y-115655764D01*
X150142607Y-115470991D01*
X150081789Y-115270503D01*
X150061254Y-115062000D01*
X150081789Y-114853497D01*
X150142607Y-114653009D01*
X150241369Y-114468236D01*
X150374282Y-114306282D01*
X150536236Y-114173369D01*
X150721009Y-114074607D01*
X150921497Y-114013789D01*
X151077749Y-113998400D01*
X151182251Y-113998400D01*
X151338503Y-114013789D01*
X151338503Y-114013789D01*
G37*
G36*
X156164503Y-114013789D02*
X156364991Y-114074607D01*
X156549764Y-114173369D01*
X156711718Y-114306282D01*
X156844631Y-114468236D01*
X156943393Y-114653009D01*
X157004211Y-114853497D01*
X157024746Y-115062000D01*
X157004211Y-115270503D01*
X156943393Y-115470991D01*
X156844631Y-115655764D01*
X156711718Y-115817718D01*
X156549764Y-115950631D01*
X156364991Y-116049393D01*
X156164503Y-116110211D01*
X156008251Y-116125600D01*
X155903749Y-116125600D01*
X155747497Y-116110211D01*
X155547009Y-116049393D01*
X155362236Y-115950631D01*
X155200282Y-115817718D01*
X155067369Y-115655764D01*
X154968607Y-115470991D01*
X154907789Y-115270503D01*
X154887254Y-115062000D01*
X154907789Y-114853497D01*
X154968607Y-114653009D01*
X155067369Y-114468236D01*
X155200282Y-114306282D01*
X155362236Y-114173369D01*
X155547009Y-114074607D01*
X155747497Y-114013789D01*
X155903749Y-113998400D01*
X156008251Y-113998400D01*
X156164503Y-114013789D01*
X156164503Y-114013789D01*
G37*
G36*
X148798503Y-111473789D02*
X148998991Y-111534607D01*
X149183764Y-111633369D01*
X149345718Y-111766282D01*
X149478631Y-111928236D01*
X149577393Y-112113009D01*
X149638211Y-112313497D01*
X149658746Y-112522000D01*
X149638211Y-112730503D01*
X149577393Y-112930991D01*
X149478631Y-113115764D01*
X149345718Y-113277718D01*
X149183764Y-113410631D01*
X148998991Y-113509393D01*
X148798503Y-113570211D01*
X148642251Y-113585600D01*
X148537749Y-113585600D01*
X148381497Y-113570211D01*
X148181009Y-113509393D01*
X147996236Y-113410631D01*
X147834282Y-113277718D01*
X147701369Y-113115764D01*
X147602607Y-112930991D01*
X147541789Y-112730503D01*
X147521254Y-112522000D01*
X147541789Y-112313497D01*
X147602607Y-112113009D01*
X147701369Y-111928236D01*
X147834282Y-111766282D01*
X147996236Y-111633369D01*
X148181009Y-111534607D01*
X148381497Y-111473789D01*
X148537749Y-111458400D01*
X148642251Y-111458400D01*
X148798503Y-111473789D01*
X148798503Y-111473789D01*
G37*
G36*
X158704503Y-111473789D02*
X158904991Y-111534607D01*
X159089764Y-111633369D01*
X159251718Y-111766282D01*
X159384631Y-111928236D01*
X159483393Y-112113009D01*
X159544211Y-112313497D01*
X159564746Y-112522000D01*
X159544211Y-112730503D01*
X159483393Y-112930991D01*
X159384631Y-113115764D01*
X159251718Y-113277718D01*
X159089764Y-113410631D01*
X158904991Y-113509393D01*
X158704503Y-113570211D01*
X158548251Y-113585600D01*
X158443749Y-113585600D01*
X158287497Y-113570211D01*
X158087009Y-113509393D01*
X157902236Y-113410631D01*
X157740282Y-113277718D01*
X157607369Y-113115764D01*
X157508607Y-112930991D01*
X157447789Y-112730503D01*
X157427254Y-112522000D01*
X157447789Y-112313497D01*
X157508607Y-112113009D01*
X157607369Y-111928236D01*
X157740282Y-111766282D01*
X157902236Y-111633369D01*
X158087009Y-111534607D01*
X158287497Y-111473789D01*
X158443749Y-111458400D01*
X158548251Y-111458400D01*
X158704503Y-111473789D01*
X158704503Y-111473789D01*
G37*
G36*
X156164503Y-111473789D02*
X156364991Y-111534607D01*
X156549764Y-111633369D01*
X156711718Y-111766282D01*
X156844631Y-111928236D01*
X156943393Y-112113009D01*
X157004211Y-112313497D01*
X157024746Y-112522000D01*
X157004211Y-112730503D01*
X156943393Y-112930991D01*
X156844631Y-113115764D01*
X156711718Y-113277718D01*
X156549764Y-113410631D01*
X156364991Y-113509393D01*
X156164503Y-113570211D01*
X156008251Y-113585600D01*
X155903749Y-113585600D01*
X155747497Y-113570211D01*
X155547009Y-113509393D01*
X155362236Y-113410631D01*
X155200282Y-113277718D01*
X155067369Y-113115764D01*
X154968607Y-112930991D01*
X154907789Y-112730503D01*
X154887254Y-112522000D01*
X154907789Y-112313497D01*
X154968607Y-112113009D01*
X155067369Y-111928236D01*
X155200282Y-111766282D01*
X155362236Y-111633369D01*
X155547009Y-111534607D01*
X155747497Y-111473789D01*
X155903749Y-111458400D01*
X156008251Y-111458400D01*
X156164503Y-111473789D01*
X156164503Y-111473789D01*
G37*
G36*
X151338503Y-111473789D02*
X151538991Y-111534607D01*
X151723764Y-111633369D01*
X151885718Y-111766282D01*
X152018631Y-111928236D01*
X152117393Y-112113009D01*
X152178211Y-112313497D01*
X152198746Y-112522000D01*
X152178211Y-112730503D01*
X152117393Y-112930991D01*
X152018631Y-113115764D01*
X151885718Y-113277718D01*
X151723764Y-113410631D01*
X151538991Y-113509393D01*
X151338503Y-113570211D01*
X151182251Y-113585600D01*
X151077749Y-113585600D01*
X150921497Y-113570211D01*
X150721009Y-113509393D01*
X150536236Y-113410631D01*
X150374282Y-113277718D01*
X150241369Y-113115764D01*
X150142607Y-112930991D01*
X150081789Y-112730503D01*
X150061254Y-112522000D01*
X150081789Y-112313497D01*
X150142607Y-112113009D01*
X150241369Y-111928236D01*
X150374282Y-111766282D01*
X150536236Y-111633369D01*
X150721009Y-111534607D01*
X150921497Y-111473789D01*
X151077749Y-111458400D01*
X151182251Y-111458400D01*
X151338503Y-111473789D01*
X151338503Y-111473789D01*
G37*
G36*
X151338503Y-108933789D02*
X151538991Y-108994607D01*
X151723764Y-109093369D01*
X151885718Y-109226282D01*
X152018631Y-109388236D01*
X152117393Y-109573009D01*
X152178211Y-109773497D01*
X152198746Y-109982000D01*
X152178211Y-110190503D01*
X152117393Y-110390991D01*
X152018631Y-110575764D01*
X151885718Y-110737718D01*
X151723764Y-110870631D01*
X151538991Y-110969393D01*
X151338503Y-111030211D01*
X151182251Y-111045600D01*
X151077749Y-111045600D01*
X150921497Y-111030211D01*
X150721009Y-110969393D01*
X150536236Y-110870631D01*
X150374282Y-110737718D01*
X150241369Y-110575764D01*
X150142607Y-110390991D01*
X150081789Y-110190503D01*
X150061254Y-109982000D01*
X150081789Y-109773497D01*
X150142607Y-109573009D01*
X150241369Y-109388236D01*
X150374282Y-109226282D01*
X150536236Y-109093369D01*
X150721009Y-108994607D01*
X150921497Y-108933789D01*
X151077749Y-108918400D01*
X151182251Y-108918400D01*
X151338503Y-108933789D01*
X151338503Y-108933789D01*
G37*
G36*
X158704503Y-108933789D02*
X158904991Y-108994607D01*
X159089764Y-109093369D01*
X159251718Y-109226282D01*
X159384631Y-109388236D01*
X159483393Y-109573009D01*
X159544211Y-109773497D01*
X159564746Y-109982000D01*
X159544211Y-110190503D01*
X159483393Y-110390991D01*
X159384631Y-110575764D01*
X159251718Y-110737718D01*
X159089764Y-110870631D01*
X158904991Y-110969393D01*
X158704503Y-111030211D01*
X158548251Y-111045600D01*
X158443749Y-111045600D01*
X158287497Y-111030211D01*
X158087009Y-110969393D01*
X157902236Y-110870631D01*
X157740282Y-110737718D01*
X157607369Y-110575764D01*
X157508607Y-110390991D01*
X157447789Y-110190503D01*
X157427254Y-109982000D01*
X157447789Y-109773497D01*
X157508607Y-109573009D01*
X157607369Y-109388236D01*
X157740282Y-109226282D01*
X157902236Y-109093369D01*
X158087009Y-108994607D01*
X158287497Y-108933789D01*
X158443749Y-108918400D01*
X158548251Y-108918400D01*
X158704503Y-108933789D01*
X158704503Y-108933789D01*
G37*
G36*
X148798503Y-108933789D02*
X148998991Y-108994607D01*
X149183764Y-109093369D01*
X149345718Y-109226282D01*
X149478631Y-109388236D01*
X149577393Y-109573009D01*
X149638211Y-109773497D01*
X149658746Y-109982000D01*
X149638211Y-110190503D01*
X149577393Y-110390991D01*
X149478631Y-110575764D01*
X149345718Y-110737718D01*
X149183764Y-110870631D01*
X148998991Y-110969393D01*
X148798503Y-111030211D01*
X148642251Y-111045600D01*
X148537749Y-111045600D01*
X148381497Y-111030211D01*
X148181009Y-110969393D01*
X147996236Y-110870631D01*
X147834282Y-110737718D01*
X147701369Y-110575764D01*
X147602607Y-110390991D01*
X147541789Y-110190503D01*
X147521254Y-109982000D01*
X147541789Y-109773497D01*
X147602607Y-109573009D01*
X147701369Y-109388236D01*
X147834282Y-109226282D01*
X147996236Y-109093369D01*
X148181009Y-108994607D01*
X148381497Y-108933789D01*
X148537749Y-108918400D01*
X148642251Y-108918400D01*
X148798503Y-108933789D01*
X148798503Y-108933789D01*
G37*
G36*
X156164503Y-108933789D02*
X156364991Y-108994607D01*
X156549764Y-109093369D01*
X156711718Y-109226282D01*
X156844631Y-109388236D01*
X156943393Y-109573009D01*
X157004211Y-109773497D01*
X157024746Y-109982000D01*
X157004211Y-110190503D01*
X156943393Y-110390991D01*
X156844631Y-110575764D01*
X156711718Y-110737718D01*
X156549764Y-110870631D01*
X156364991Y-110969393D01*
X156164503Y-111030211D01*
X156008251Y-111045600D01*
X155903749Y-111045600D01*
X155747497Y-111030211D01*
X155547009Y-110969393D01*
X155362236Y-110870631D01*
X155200282Y-110737718D01*
X155067369Y-110575764D01*
X154968607Y-110390991D01*
X154907789Y-110190503D01*
X154887254Y-109982000D01*
X154907789Y-109773497D01*
X154968607Y-109573009D01*
X155067369Y-109388236D01*
X155200282Y-109226282D01*
X155362236Y-109093369D01*
X155547009Y-108994607D01*
X155747497Y-108933789D01*
X155903749Y-108918400D01*
X156008251Y-108918400D01*
X156164503Y-108933789D01*
X156164503Y-108933789D01*
G37*
G36*
X141569847Y-105854501D02*
X141952022Y-106012803D01*
X141952023Y-106012804D01*
X142295972Y-106242623D01*
X142588477Y-106535128D01*
X142741690Y-106764427D01*
X142818297Y-106879078D01*
X142976599Y-107261253D01*
X143057300Y-107666967D01*
X143057300Y-108080633D01*
X142976599Y-108486347D01*
X142818297Y-108868522D01*
X142818296Y-108868523D01*
X142588477Y-109212472D01*
X142295972Y-109504977D01*
X142066673Y-109658190D01*
X141952022Y-109734797D01*
X141569847Y-109893099D01*
X141164133Y-109973800D01*
X140750467Y-109973800D01*
X140344753Y-109893099D01*
X139962578Y-109734797D01*
X139847927Y-109658190D01*
X139618628Y-109504977D01*
X139326123Y-109212472D01*
X139096304Y-108868523D01*
X139096303Y-108868522D01*
X138938001Y-108486347D01*
X138857300Y-108080633D01*
X138857300Y-107666967D01*
X138938001Y-107261253D01*
X139096303Y-106879078D01*
X139172910Y-106764427D01*
X139326123Y-106535128D01*
X139618628Y-106242623D01*
X139962577Y-106012804D01*
X139962578Y-106012803D01*
X140344753Y-105854501D01*
X140750467Y-105773800D01*
X141164133Y-105773800D01*
X141569847Y-105854501D01*
X141569847Y-105854501D01*
G37*
G36*
X156164503Y-106393789D02*
X156364991Y-106454607D01*
X156549764Y-106553369D01*
X156711718Y-106686282D01*
X156844631Y-106848236D01*
X156943393Y-107033009D01*
X157004211Y-107233497D01*
X157024746Y-107442000D01*
X157004211Y-107650503D01*
X156943393Y-107850991D01*
X156844631Y-108035764D01*
X156711718Y-108197718D01*
X156549764Y-108330631D01*
X156364991Y-108429393D01*
X156164503Y-108490211D01*
X156008251Y-108505600D01*
X155903749Y-108505600D01*
X155747497Y-108490211D01*
X155547009Y-108429393D01*
X155362236Y-108330631D01*
X155200282Y-108197718D01*
X155067369Y-108035764D01*
X154968607Y-107850991D01*
X154907789Y-107650503D01*
X154887254Y-107442000D01*
X154907789Y-107233497D01*
X154968607Y-107033009D01*
X155067369Y-106848236D01*
X155200282Y-106686282D01*
X155362236Y-106553369D01*
X155547009Y-106454607D01*
X155747497Y-106393789D01*
X155903749Y-106378400D01*
X156008251Y-106378400D01*
X156164503Y-106393789D01*
X156164503Y-106393789D01*
G37*
G36*
X148798503Y-106393789D02*
X148998991Y-106454607D01*
X149183764Y-106553369D01*
X149345718Y-106686282D01*
X149478631Y-106848236D01*
X149577393Y-107033009D01*
X149638211Y-107233497D01*
X149658746Y-107442000D01*
X149638211Y-107650503D01*
X149577393Y-107850991D01*
X149478631Y-108035764D01*
X149345718Y-108197718D01*
X149183764Y-108330631D01*
X148998991Y-108429393D01*
X148798503Y-108490211D01*
X148642251Y-108505600D01*
X148537749Y-108505600D01*
X148381497Y-108490211D01*
X148181009Y-108429393D01*
X147996236Y-108330631D01*
X147834282Y-108197718D01*
X147701369Y-108035764D01*
X147602607Y-107850991D01*
X147541789Y-107650503D01*
X147521254Y-107442000D01*
X147541789Y-107233497D01*
X147602607Y-107033009D01*
X147701369Y-106848236D01*
X147834282Y-106686282D01*
X147996236Y-106553369D01*
X148181009Y-106454607D01*
X148381497Y-106393789D01*
X148537749Y-106378400D01*
X148642251Y-106378400D01*
X148798503Y-106393789D01*
X148798503Y-106393789D01*
G37*
G36*
X158704503Y-106393789D02*
X158904991Y-106454607D01*
X159089764Y-106553369D01*
X159251718Y-106686282D01*
X159384631Y-106848236D01*
X159483393Y-107033009D01*
X159544211Y-107233497D01*
X159564746Y-107442000D01*
X159544211Y-107650503D01*
X159483393Y-107850991D01*
X159384631Y-108035764D01*
X159251718Y-108197718D01*
X159089764Y-108330631D01*
X158904991Y-108429393D01*
X158704503Y-108490211D01*
X158548251Y-108505600D01*
X158443749Y-108505600D01*
X158287497Y-108490211D01*
X158087009Y-108429393D01*
X157902236Y-108330631D01*
X157740282Y-108197718D01*
X157607369Y-108035764D01*
X157508607Y-107850991D01*
X157447789Y-107650503D01*
X157427254Y-107442000D01*
X157447789Y-107233497D01*
X157508607Y-107033009D01*
X157607369Y-106848236D01*
X157740282Y-106686282D01*
X157902236Y-106553369D01*
X158087009Y-106454607D01*
X158287497Y-106393789D01*
X158443749Y-106378400D01*
X158548251Y-106378400D01*
X158704503Y-106393789D01*
X158704503Y-106393789D01*
G37*
G36*
X151338503Y-106393789D02*
X151538991Y-106454607D01*
X151723764Y-106553369D01*
X151885718Y-106686282D01*
X152018631Y-106848236D01*
X152117393Y-107033009D01*
X152178211Y-107233497D01*
X152198746Y-107442000D01*
X152178211Y-107650503D01*
X152117393Y-107850991D01*
X152018631Y-108035764D01*
X151885718Y-108197718D01*
X151723764Y-108330631D01*
X151538991Y-108429393D01*
X151338503Y-108490211D01*
X151182251Y-108505600D01*
X151077749Y-108505600D01*
X150921497Y-108490211D01*
X150721009Y-108429393D01*
X150536236Y-108330631D01*
X150374282Y-108197718D01*
X150241369Y-108035764D01*
X150142607Y-107850991D01*
X150081789Y-107650503D01*
X150061254Y-107442000D01*
X150081789Y-107233497D01*
X150142607Y-107033009D01*
X150241369Y-106848236D01*
X150374282Y-106686282D01*
X150536236Y-106553369D01*
X150721009Y-106454607D01*
X150921497Y-106393789D01*
X151077749Y-106378400D01*
X151182251Y-106378400D01*
X151338503Y-106393789D01*
X151338503Y-106393789D01*
G37*
G36*
X157019600Y-105965600D02*
X154892400Y-105965600D01*
X154892400Y-103838400D01*
X157019600Y-103838400D01*
X157019600Y-105965600D01*
X157019600Y-105965600D01*
G37*
G36*
X158704503Y-103853789D02*
X158904991Y-103914607D01*
X159089764Y-104013369D01*
X159251718Y-104146282D01*
X159384631Y-104308236D01*
X159483393Y-104493009D01*
X159544211Y-104693497D01*
X159564746Y-104902000D01*
X159544211Y-105110503D01*
X159483393Y-105310991D01*
X159384631Y-105495764D01*
X159251718Y-105657718D01*
X159089764Y-105790631D01*
X158904991Y-105889393D01*
X158704503Y-105950211D01*
X158548251Y-105965600D01*
X158443749Y-105965600D01*
X158287497Y-105950211D01*
X158087009Y-105889393D01*
X157902236Y-105790631D01*
X157740282Y-105657718D01*
X157607369Y-105495764D01*
X157508607Y-105310991D01*
X157447789Y-105110503D01*
X157427254Y-104902000D01*
X157447789Y-104693497D01*
X157508607Y-104493009D01*
X157607369Y-104308236D01*
X157740282Y-104146282D01*
X157902236Y-104013369D01*
X158087009Y-103914607D01*
X158287497Y-103853789D01*
X158443749Y-103838400D01*
X158548251Y-103838400D01*
X158704503Y-103853789D01*
X158704503Y-103853789D01*
G37*
G36*
X149653600Y-105965600D02*
X147526400Y-105965600D01*
X147526400Y-103838400D01*
X149653600Y-103838400D01*
X149653600Y-105965600D01*
X149653600Y-105965600D01*
G37*
G36*
X151338503Y-103853789D02*
X151538991Y-103914607D01*
X151723764Y-104013369D01*
X151885718Y-104146282D01*
X152018631Y-104308236D01*
X152117393Y-104493009D01*
X152178211Y-104693497D01*
X152198746Y-104902000D01*
X152178211Y-105110503D01*
X152117393Y-105310991D01*
X152018631Y-105495764D01*
X151885718Y-105657718D01*
X151723764Y-105790631D01*
X151538991Y-105889393D01*
X151338503Y-105950211D01*
X151182251Y-105965600D01*
X151077749Y-105965600D01*
X150921497Y-105950211D01*
X150721009Y-105889393D01*
X150536236Y-105790631D01*
X150374282Y-105657718D01*
X150241369Y-105495764D01*
X150142607Y-105310991D01*
X150081789Y-105110503D01*
X150061254Y-104902000D01*
X150081789Y-104693497D01*
X150142607Y-104493009D01*
X150241369Y-104308236D01*
X150374282Y-104146282D01*
X150536236Y-104013369D01*
X150721009Y-103914607D01*
X150921497Y-103853789D01*
X151077749Y-103838400D01*
X151182251Y-103838400D01*
X151338503Y-103853789D01*
X151338503Y-103853789D01*
G37*
G36*
X145082770Y-97135572D02*
X145198689Y-97158629D01*
X145380678Y-97234011D01*
X145544463Y-97343449D01*
X145683751Y-97482737D01*
X145793189Y-97646522D01*
X145868571Y-97828511D01*
X145907000Y-98021709D01*
X145907000Y-98218691D01*
X145868571Y-98411889D01*
X145793189Y-98593878D01*
X145683751Y-98757663D01*
X145544463Y-98896951D01*
X145380678Y-99006389D01*
X145346084Y-99020718D01*
X145324479Y-99032266D01*
X145305537Y-99047812D01*
X145289991Y-99066754D01*
X145278440Y-99088364D01*
X145271327Y-99111814D01*
X145268925Y-99136200D01*
X145271327Y-99160586D01*
X145278440Y-99184035D01*
X145289991Y-99205646D01*
X145305537Y-99224588D01*
X145324479Y-99240134D01*
X145346084Y-99251682D01*
X145380678Y-99266011D01*
X145544463Y-99375449D01*
X145683751Y-99514737D01*
X145793189Y-99678522D01*
X145868571Y-99860511D01*
X145907000Y-100053709D01*
X145907000Y-100250691D01*
X145868571Y-100443889D01*
X145793189Y-100625878D01*
X145683751Y-100789663D01*
X145544463Y-100928951D01*
X145380678Y-101038389D01*
X145198689Y-101113771D01*
X145082770Y-101136828D01*
X145005493Y-101152200D01*
X144808507Y-101152200D01*
X144731230Y-101136828D01*
X144615311Y-101113771D01*
X144433322Y-101038389D01*
X144269537Y-100928951D01*
X144130249Y-100789663D01*
X144020811Y-100625878D01*
X143945429Y-100443889D01*
X143907000Y-100250691D01*
X143907000Y-100053709D01*
X143945429Y-99860511D01*
X144020811Y-99678522D01*
X144130249Y-99514737D01*
X144269537Y-99375449D01*
X144433322Y-99266011D01*
X144467916Y-99251682D01*
X144489521Y-99240134D01*
X144508463Y-99224588D01*
X144524009Y-99205646D01*
X144535560Y-99184036D01*
X144542673Y-99160586D01*
X144545075Y-99136200D01*
X144542673Y-99111814D01*
X144535560Y-99088365D01*
X144524009Y-99066754D01*
X144508463Y-99047812D01*
X144489521Y-99032266D01*
X144467916Y-99020718D01*
X144433322Y-99006389D01*
X144269537Y-98896951D01*
X144130249Y-98757663D01*
X144020811Y-98593878D01*
X143945429Y-98411889D01*
X143907000Y-98218691D01*
X143907000Y-98021709D01*
X143945429Y-97828511D01*
X144020811Y-97646522D01*
X144130249Y-97482737D01*
X144269537Y-97343449D01*
X144433322Y-97234011D01*
X144615311Y-97158629D01*
X144731230Y-97135572D01*
X144808507Y-97120200D01*
X145005493Y-97120200D01*
X145082770Y-97135572D01*
X145082770Y-97135572D01*
G37*
G36*
X148874643Y-97738294D02*
X149083928Y-97824983D01*
X149272285Y-97950839D01*
X149432461Y-98111015D01*
X149558317Y-98299371D01*
X149597094Y-98392989D01*
X149608645Y-98414600D01*
X149624190Y-98433542D01*
X149643132Y-98449087D01*
X149664743Y-98460639D01*
X149688192Y-98467752D01*
X149712578Y-98470154D01*
X149736965Y-98467752D01*
X149760414Y-98460639D01*
X149782025Y-98449088D01*
X149800967Y-98433543D01*
X149816512Y-98414601D01*
X149828060Y-98392998D01*
X149837411Y-98370422D01*
X149946849Y-98206637D01*
X150086137Y-98067349D01*
X150249922Y-97957911D01*
X150431911Y-97882529D01*
X150547830Y-97859472D01*
X150625107Y-97844100D01*
X150822093Y-97844100D01*
X150899370Y-97859472D01*
X151015289Y-97882529D01*
X151197278Y-97957911D01*
X151361063Y-98067349D01*
X151500351Y-98206637D01*
X151609789Y-98370422D01*
X151685171Y-98552411D01*
X151685172Y-98552414D01*
X151687615Y-98558313D01*
X151699166Y-98579923D01*
X151714712Y-98598865D01*
X151733654Y-98614411D01*
X151755265Y-98625962D01*
X151778714Y-98633075D01*
X151803100Y-98635477D01*
X151827486Y-98633075D01*
X151850936Y-98625962D01*
X151872546Y-98614411D01*
X151891488Y-98598865D01*
X151907034Y-98579923D01*
X151918585Y-98558313D01*
X151921028Y-98552414D01*
X151921029Y-98552411D01*
X151996411Y-98370422D01*
X152105849Y-98206637D01*
X152245137Y-98067349D01*
X152408922Y-97957911D01*
X152590911Y-97882529D01*
X152706830Y-97859472D01*
X152784107Y-97844100D01*
X152981093Y-97844100D01*
X153058370Y-97859472D01*
X153174289Y-97882529D01*
X153356278Y-97957911D01*
X153520063Y-98067349D01*
X153659351Y-98206637D01*
X153768789Y-98370422D01*
X153844171Y-98552411D01*
X153844172Y-98552414D01*
X153846615Y-98558313D01*
X153858166Y-98579923D01*
X153873712Y-98598865D01*
X153892654Y-98614411D01*
X153914265Y-98625962D01*
X153937714Y-98633075D01*
X153962100Y-98635477D01*
X153986486Y-98633075D01*
X154009936Y-98625962D01*
X154031546Y-98614411D01*
X154050488Y-98598865D01*
X154066034Y-98579923D01*
X154077585Y-98558313D01*
X154080028Y-98552414D01*
X154080029Y-98552411D01*
X154155411Y-98370422D01*
X154264849Y-98206637D01*
X154404137Y-98067349D01*
X154567922Y-97957911D01*
X154749911Y-97882529D01*
X154865830Y-97859472D01*
X154943107Y-97844100D01*
X155140093Y-97844100D01*
X155217370Y-97859472D01*
X155333289Y-97882529D01*
X155515278Y-97957911D01*
X155679063Y-98067349D01*
X155818351Y-98206637D01*
X155927789Y-98370422D01*
X155949839Y-98423656D01*
X155961388Y-98445261D01*
X155976933Y-98464203D01*
X155995875Y-98479748D01*
X156017486Y-98491299D01*
X156040935Y-98498412D01*
X156065322Y-98500814D01*
X156089708Y-98498412D01*
X156113157Y-98491299D01*
X156134768Y-98479747D01*
X156153710Y-98464202D01*
X156169255Y-98445260D01*
X156180806Y-98423649D01*
X156232283Y-98299371D01*
X156358139Y-98111015D01*
X156518315Y-97950839D01*
X156706672Y-97824983D01*
X156915957Y-97738294D01*
X157138134Y-97694100D01*
X157364666Y-97694100D01*
X157586843Y-97738294D01*
X157796128Y-97824983D01*
X157984485Y-97950839D01*
X158144661Y-98111015D01*
X158270517Y-98299372D01*
X158357206Y-98508657D01*
X158401400Y-98730834D01*
X158401400Y-98957366D01*
X158357206Y-99179543D01*
X158270517Y-99388828D01*
X158144661Y-99577185D01*
X157984485Y-99737361D01*
X157796128Y-99863217D01*
X157586843Y-99949906D01*
X157364666Y-99994100D01*
X157138134Y-99994100D01*
X156915957Y-99949906D01*
X156706672Y-99863217D01*
X156518315Y-99737361D01*
X156358139Y-99577185D01*
X156232283Y-99388829D01*
X156180806Y-99264551D01*
X156169255Y-99242940D01*
X156153710Y-99223998D01*
X156134767Y-99208452D01*
X156113157Y-99196901D01*
X156089708Y-99189788D01*
X156065321Y-99187386D01*
X156040935Y-99189788D01*
X156017486Y-99196901D01*
X155995875Y-99208452D01*
X155976933Y-99223997D01*
X155961387Y-99242940D01*
X155949839Y-99264544D01*
X155927789Y-99317778D01*
X155818351Y-99481563D01*
X155679063Y-99620851D01*
X155515278Y-99730289D01*
X155333289Y-99805671D01*
X155217370Y-99828728D01*
X155140093Y-99844100D01*
X154943107Y-99844100D01*
X154865830Y-99828728D01*
X154749911Y-99805671D01*
X154567922Y-99730289D01*
X154404137Y-99620851D01*
X154264849Y-99481563D01*
X154155411Y-99317778D01*
X154080029Y-99135789D01*
X154080028Y-99135786D01*
X154077585Y-99129887D01*
X154066034Y-99108277D01*
X154050488Y-99089335D01*
X154031546Y-99073789D01*
X154009935Y-99062238D01*
X153986486Y-99055125D01*
X153962100Y-99052723D01*
X153937714Y-99055125D01*
X153914264Y-99062238D01*
X153892654Y-99073789D01*
X153873712Y-99089335D01*
X153858166Y-99108277D01*
X153846615Y-99129887D01*
X153844172Y-99135786D01*
X153844171Y-99135789D01*
X153768789Y-99317778D01*
X153659351Y-99481563D01*
X153520063Y-99620851D01*
X153356278Y-99730289D01*
X153174289Y-99805671D01*
X153058370Y-99828728D01*
X152981093Y-99844100D01*
X152784107Y-99844100D01*
X152706830Y-99828728D01*
X152590911Y-99805671D01*
X152408922Y-99730289D01*
X152245137Y-99620851D01*
X152105849Y-99481563D01*
X151996411Y-99317778D01*
X151921029Y-99135789D01*
X151921028Y-99135786D01*
X151918585Y-99129887D01*
X151907034Y-99108277D01*
X151891488Y-99089335D01*
X151872546Y-99073789D01*
X151850935Y-99062238D01*
X151827486Y-99055125D01*
X151803100Y-99052723D01*
X151778714Y-99055125D01*
X151755264Y-99062238D01*
X151733654Y-99073789D01*
X151714712Y-99089335D01*
X151699166Y-99108277D01*
X151687615Y-99129887D01*
X151685172Y-99135786D01*
X151685171Y-99135789D01*
X151609789Y-99317778D01*
X151500351Y-99481563D01*
X151361063Y-99620851D01*
X151197278Y-99730289D01*
X151015289Y-99805671D01*
X150899370Y-99828728D01*
X150822093Y-99844100D01*
X150625107Y-99844100D01*
X150547830Y-99828728D01*
X150431911Y-99805671D01*
X150249922Y-99730289D01*
X150086137Y-99620851D01*
X149946849Y-99481563D01*
X149837411Y-99317778D01*
X149828060Y-99295202D01*
X149816512Y-99273599D01*
X149800967Y-99254657D01*
X149782025Y-99239112D01*
X149760414Y-99227561D01*
X149736965Y-99220448D01*
X149712578Y-99218046D01*
X149688192Y-99220448D01*
X149664743Y-99227561D01*
X149643132Y-99239113D01*
X149624190Y-99254658D01*
X149608645Y-99273600D01*
X149597094Y-99295211D01*
X149558317Y-99388829D01*
X149432461Y-99577185D01*
X149272285Y-99737361D01*
X149083928Y-99863217D01*
X148874643Y-99949906D01*
X148652466Y-99994100D01*
X148425934Y-99994100D01*
X148203757Y-99949906D01*
X147994472Y-99863217D01*
X147806115Y-99737361D01*
X147645939Y-99577185D01*
X147520083Y-99388828D01*
X147433394Y-99179543D01*
X147389200Y-98957366D01*
X147389200Y-98730834D01*
X147433394Y-98508657D01*
X147520083Y-98299372D01*
X147645939Y-98111015D01*
X147806115Y-97950839D01*
X147994472Y-97824983D01*
X148203757Y-97738294D01*
X148425934Y-97694100D01*
X148652466Y-97694100D01*
X148874643Y-97738294D01*
X148874643Y-97738294D01*
G37*
M02*
