M48
METRIC,TZ
T1C1.000
T2C1.016
T3C1.300
T4C3.200
%
G90
G05
T1
X150724Y-98844
X152883Y-98844
X155042Y-98844
X144907Y-98120
X144907Y-100152
T2
X148590Y-104902
X148590Y-107442
X148590Y-109982
X148590Y-112522
X148590Y-115062
X148590Y-117602
X148590Y-120142
X148590Y-122682
X148590Y-125222
X148590Y-127762
X148590Y-130302
X148590Y-132842
X148590Y-135382
X148590Y-137922
X148590Y-140462
X148590Y-143002
X148590Y-145542
X148590Y-148082
X148590Y-150622
X148590Y-153162
X151130Y-104902
X151130Y-107442
X151130Y-109982
X151130Y-112522
X151130Y-115062
X151130Y-117602
X151130Y-120142
X151130Y-122682
X151130Y-125222
X151130Y-127762
X151130Y-130302
X151130Y-132842
X151130Y-135382
X151130Y-137922
X151130Y-140462
X151130Y-143002
X151130Y-145542
X151130Y-148082
X151130Y-150622
X151130Y-153162
X155956Y-104902
X155956Y-107442
X155956Y-109982
X155956Y-112522
X155956Y-115062
X155956Y-117602
X155956Y-120142
X155956Y-122682
X155956Y-125222
X155956Y-127762
X155956Y-130302
X155956Y-132842
X155956Y-135382
X155956Y-137922
X155956Y-140462
X155956Y-143002
X155956Y-145542
X155956Y-148082
X155956Y-150622
X155956Y-153162
X158496Y-104902
X158496Y-107442
X158496Y-109982
X158496Y-112522
X158496Y-115062
X158496Y-117602
X158496Y-120142
X158496Y-122682
X158496Y-125222
X158496Y-127762
X158496Y-130302
X158496Y-132842
X158496Y-135382
X158496Y-137922
X158496Y-140462
X158496Y-143002
X158496Y-145542
X158496Y-148082
X158496Y-150622
X158496Y-153162
T3
X148539Y-98844
X157251Y-98844
T4
X140957Y-107874
X140957Y-140665
T0
M30
