G04 #@! TF.GenerationSoftware,KiCad,Pcbnew,5.0.2+dfsg1-1~bpo9+1*
G04 #@! TF.CreationDate,2019-07-06T14:36:30+01:00*
G04 #@! TF.ProjectId,pi_gpio_breakout_fan,70695f67-7069-46f5-9f62-7265616b6f75,rev?*
G04 #@! TF.SameCoordinates,Original*
G04 #@! TF.FileFunction,Legend,Top*
G04 #@! TF.FilePolarity,Positive*
%FSLAX46Y46*%
G04 Gerber Fmt 4.6, Leading zero omitted, Abs format (unit mm)*
G04 Created by KiCad (PCBNEW 5.0.2+dfsg1-1~bpo9+1) date Sat 06 Jul 2019 14:36:30 BST*
%MOMM*%
%LPD*%
G01*
G04 APERTURE LIST*
%ADD10C,0.300000*%
%ADD11C,0.150000*%
G04 APERTURE END LIST*
D10*
X137343071Y-151137157D02*
X137557357Y-151208585D01*
X137628785Y-151280014D01*
X137700214Y-151422871D01*
X137700214Y-151637157D01*
X137628785Y-151780014D01*
X137557357Y-151851442D01*
X137414500Y-151922871D01*
X136843071Y-151922871D01*
X136843071Y-150422871D01*
X137343071Y-150422871D01*
X137485928Y-150494300D01*
X137557357Y-150565728D01*
X137628785Y-150708585D01*
X137628785Y-150851442D01*
X137557357Y-150994300D01*
X137485928Y-151065728D01*
X137343071Y-151137157D01*
X136843071Y-151137157D01*
X138343071Y-151922871D02*
X138343071Y-150922871D01*
X138343071Y-151208585D02*
X138414500Y-151065728D01*
X138485928Y-150994300D01*
X138628785Y-150922871D01*
X138771642Y-150922871D01*
X139843071Y-151851442D02*
X139700214Y-151922871D01*
X139414500Y-151922871D01*
X139271642Y-151851442D01*
X139200214Y-151708585D01*
X139200214Y-151137157D01*
X139271642Y-150994300D01*
X139414500Y-150922871D01*
X139700214Y-150922871D01*
X139843071Y-150994300D01*
X139914500Y-151137157D01*
X139914500Y-151280014D01*
X139200214Y-151422871D01*
X141200214Y-151922871D02*
X141200214Y-151137157D01*
X141128785Y-150994300D01*
X140985928Y-150922871D01*
X140700214Y-150922871D01*
X140557357Y-150994300D01*
X141200214Y-151851442D02*
X141057357Y-151922871D01*
X140700214Y-151922871D01*
X140557357Y-151851442D01*
X140485928Y-151708585D01*
X140485928Y-151565728D01*
X140557357Y-151422871D01*
X140700214Y-151351442D01*
X141057357Y-151351442D01*
X141200214Y-151280014D01*
X141914500Y-151922871D02*
X141914500Y-150422871D01*
X142057357Y-151351442D02*
X142485928Y-151922871D01*
X142485928Y-150922871D02*
X141914500Y-151494300D01*
X143343071Y-151922871D02*
X143200214Y-151851442D01*
X143128785Y-151780014D01*
X143057357Y-151637157D01*
X143057357Y-151208585D01*
X143128785Y-151065728D01*
X143200214Y-150994300D01*
X143343071Y-150922871D01*
X143557357Y-150922871D01*
X143700214Y-150994300D01*
X143771642Y-151065728D01*
X143843071Y-151208585D01*
X143843071Y-151637157D01*
X143771642Y-151780014D01*
X143700214Y-151851442D01*
X143557357Y-151922871D01*
X143343071Y-151922871D01*
X145128785Y-150922871D02*
X145128785Y-151922871D01*
X144485928Y-150922871D02*
X144485928Y-151708585D01*
X144557357Y-151851442D01*
X144700214Y-151922871D01*
X144914500Y-151922871D01*
X145057357Y-151851442D01*
X145128785Y-151780014D01*
X145628785Y-150922871D02*
X146200214Y-150922871D01*
X145843071Y-150422871D02*
X145843071Y-151708585D01*
X145914500Y-151851442D01*
X146057357Y-151922871D01*
X146200214Y-151922871D01*
X139914500Y-148119400D02*
X139771642Y-148047971D01*
X139557357Y-148047971D01*
X139343071Y-148119400D01*
X139200214Y-148262257D01*
X139128785Y-148405114D01*
X139057357Y-148690828D01*
X139057357Y-148905114D01*
X139128785Y-149190828D01*
X139200214Y-149333685D01*
X139343071Y-149476542D01*
X139557357Y-149547971D01*
X139700214Y-149547971D01*
X139914500Y-149476542D01*
X139985928Y-149405114D01*
X139985928Y-148905114D01*
X139700214Y-148905114D01*
X140628785Y-149547971D02*
X140628785Y-148047971D01*
X141200214Y-148047971D01*
X141343071Y-148119400D01*
X141414500Y-148190828D01*
X141485928Y-148333685D01*
X141485928Y-148547971D01*
X141414500Y-148690828D01*
X141343071Y-148762257D01*
X141200214Y-148833685D01*
X140628785Y-148833685D01*
X142128785Y-149547971D02*
X142128785Y-148047971D01*
X143128785Y-148047971D02*
X143414500Y-148047971D01*
X143557357Y-148119400D01*
X143700214Y-148262257D01*
X143771642Y-148547971D01*
X143771642Y-149047971D01*
X143700214Y-149333685D01*
X143557357Y-149476542D01*
X143414500Y-149547971D01*
X143128785Y-149547971D01*
X142985928Y-149476542D01*
X142843071Y-149333685D01*
X142771642Y-149047971D01*
X142771642Y-148547971D01*
X142843071Y-148262257D01*
X142985928Y-148119400D01*
X143128785Y-148047971D01*
X140271642Y-146311157D02*
X139771642Y-146311157D01*
X139771642Y-147096871D02*
X139771642Y-145596871D01*
X140485928Y-145596871D01*
X141700214Y-147096871D02*
X141700214Y-146311157D01*
X141628785Y-146168300D01*
X141485928Y-146096871D01*
X141200214Y-146096871D01*
X141057357Y-146168300D01*
X141700214Y-147025442D02*
X141557357Y-147096871D01*
X141200214Y-147096871D01*
X141057357Y-147025442D01*
X140985928Y-146882585D01*
X140985928Y-146739728D01*
X141057357Y-146596871D01*
X141200214Y-146525442D01*
X141557357Y-146525442D01*
X141700214Y-146454014D01*
X142414500Y-146096871D02*
X142414500Y-147096871D01*
X142414500Y-146239728D02*
X142485928Y-146168300D01*
X142628785Y-146096871D01*
X142843071Y-146096871D01*
X142985928Y-146168300D01*
X143057357Y-146311157D01*
X143057357Y-147096871D01*
X140748557Y-134344928D02*
X140748557Y-134844928D01*
X141534271Y-134844928D02*
X140034271Y-134844928D01*
X140034271Y-134130642D01*
X141534271Y-132916357D02*
X140748557Y-132916357D01*
X140605700Y-132987785D01*
X140534271Y-133130642D01*
X140534271Y-133416357D01*
X140605700Y-133559214D01*
X141462842Y-132916357D02*
X141534271Y-133059214D01*
X141534271Y-133416357D01*
X141462842Y-133559214D01*
X141319985Y-133630642D01*
X141177128Y-133630642D01*
X141034271Y-133559214D01*
X140962842Y-133416357D01*
X140962842Y-133059214D01*
X140891414Y-132916357D01*
X141462842Y-131559214D02*
X141534271Y-131702071D01*
X141534271Y-131987785D01*
X141462842Y-132130642D01*
X141391414Y-132202071D01*
X141248557Y-132273500D01*
X140819985Y-132273500D01*
X140677128Y-132202071D01*
X140605700Y-132130642D01*
X140534271Y-131987785D01*
X140534271Y-131702071D01*
X140605700Y-131559214D01*
X141462842Y-130344928D02*
X141534271Y-130487785D01*
X141534271Y-130773500D01*
X141462842Y-130916357D01*
X141319985Y-130987785D01*
X140748557Y-130987785D01*
X140605700Y-130916357D01*
X140534271Y-130773500D01*
X140534271Y-130487785D01*
X140605700Y-130344928D01*
X140748557Y-130273500D01*
X140891414Y-130273500D01*
X141034271Y-130987785D01*
X141534271Y-129416357D02*
X141462842Y-129559214D01*
X141319985Y-129630642D01*
X140034271Y-129630642D01*
X141462842Y-128273500D02*
X141534271Y-128416357D01*
X141534271Y-128702071D01*
X141462842Y-128844928D01*
X141319985Y-128916357D01*
X140748557Y-128916357D01*
X140605700Y-128844928D01*
X140534271Y-128702071D01*
X140534271Y-128416357D01*
X140605700Y-128273500D01*
X140748557Y-128202071D01*
X140891414Y-128202071D01*
X141034271Y-128916357D01*
X141462842Y-127630642D02*
X141534271Y-127487785D01*
X141534271Y-127202071D01*
X141462842Y-127059214D01*
X141319985Y-126987785D01*
X141248557Y-126987785D01*
X141105700Y-127059214D01*
X141034271Y-127202071D01*
X141034271Y-127416357D01*
X140962842Y-127559214D01*
X140819985Y-127630642D01*
X140748557Y-127630642D01*
X140605700Y-127559214D01*
X140534271Y-127416357D01*
X140534271Y-127202071D01*
X140605700Y-127059214D01*
X141462842Y-126416357D02*
X141534271Y-126273500D01*
X141534271Y-125987785D01*
X141462842Y-125844928D01*
X141319985Y-125773500D01*
X141248557Y-125773500D01*
X141105700Y-125844928D01*
X141034271Y-125987785D01*
X141034271Y-126202071D01*
X140962842Y-126344928D01*
X140819985Y-126416357D01*
X140748557Y-126416357D01*
X140605700Y-126344928D01*
X140534271Y-126202071D01*
X140534271Y-125987785D01*
X140605700Y-125844928D01*
X140534271Y-125344928D02*
X140534271Y-124773500D01*
X140034271Y-125130642D02*
X141319985Y-125130642D01*
X141462842Y-125059214D01*
X141534271Y-124916357D01*
X141534271Y-124773500D01*
X141462842Y-123702071D02*
X141534271Y-123844928D01*
X141534271Y-124130642D01*
X141462842Y-124273500D01*
X141319985Y-124344928D01*
X140748557Y-124344928D01*
X140605700Y-124273500D01*
X140534271Y-124130642D01*
X140534271Y-123844928D01*
X140605700Y-123702071D01*
X140748557Y-123630642D01*
X140891414Y-123630642D01*
X141034271Y-124344928D01*
X141462842Y-122344928D02*
X141534271Y-122487785D01*
X141534271Y-122773500D01*
X141462842Y-122916357D01*
X141391414Y-122987785D01*
X141248557Y-123059214D01*
X140819985Y-123059214D01*
X140677128Y-122987785D01*
X140605700Y-122916357D01*
X140534271Y-122773500D01*
X140534271Y-122487785D01*
X140605700Y-122344928D01*
X141534271Y-121702071D02*
X140034271Y-121702071D01*
X141534271Y-121059214D02*
X140748557Y-121059214D01*
X140605700Y-121130642D01*
X140534271Y-121273500D01*
X140534271Y-121487785D01*
X140605700Y-121630642D01*
X140677128Y-121702071D01*
X140177128Y-119273500D02*
X140105700Y-119202071D01*
X140034271Y-119059214D01*
X140034271Y-118702071D01*
X140105700Y-118559214D01*
X140177128Y-118487785D01*
X140319985Y-118416357D01*
X140462842Y-118416357D01*
X140677128Y-118487785D01*
X141534271Y-119344928D01*
X141534271Y-118416357D01*
X140034271Y-117487785D02*
X140034271Y-117344928D01*
X140105700Y-117202071D01*
X140177128Y-117130642D01*
X140319985Y-117059214D01*
X140605700Y-116987785D01*
X140962842Y-116987785D01*
X141248557Y-117059214D01*
X141391414Y-117130642D01*
X141462842Y-117202071D01*
X141534271Y-117344928D01*
X141534271Y-117487785D01*
X141462842Y-117630642D01*
X141391414Y-117702071D01*
X141248557Y-117773500D01*
X140962842Y-117844928D01*
X140605700Y-117844928D01*
X140319985Y-117773500D01*
X140177128Y-117702071D01*
X140105700Y-117630642D01*
X140034271Y-117487785D01*
X141534271Y-115559214D02*
X141534271Y-116416357D01*
X141534271Y-115987785D02*
X140034271Y-115987785D01*
X140248557Y-116130642D01*
X140391414Y-116273500D01*
X140462842Y-116416357D01*
X141534271Y-114844928D02*
X141534271Y-114559214D01*
X141462842Y-114416357D01*
X141391414Y-114344928D01*
X141177128Y-114202071D01*
X140891414Y-114130642D01*
X140319985Y-114130642D01*
X140177128Y-114202071D01*
X140105700Y-114273500D01*
X140034271Y-114416357D01*
X140034271Y-114702071D01*
X140105700Y-114844928D01*
X140177128Y-114916357D01*
X140319985Y-114987785D01*
X140677128Y-114987785D01*
X140819985Y-114916357D01*
X140891414Y-114844928D01*
X140962842Y-114702071D01*
X140962842Y-114416357D01*
X140891414Y-114273500D01*
X140819985Y-114202071D01*
X140677128Y-114130642D01*
D11*
G04 #@! TO.C,U1*
X159766000Y-154432000D02*
X159766000Y-103632000D01*
X154686000Y-106172000D02*
X154686000Y-154432000D01*
X159766000Y-154432000D02*
X154686000Y-154432000D01*
X159766000Y-103632000D02*
X157226000Y-103632000D01*
X155956000Y-103352000D02*
X154406000Y-103352000D01*
X157226000Y-103632000D02*
X157226000Y-106172000D01*
X157226000Y-106172000D02*
X154686000Y-106172000D01*
X154406000Y-103352000D02*
X154406000Y-104902000D01*
G04 #@! TO.C,U2*
X152400000Y-154432000D02*
X152400000Y-103632000D01*
X147320000Y-106172000D02*
X147320000Y-154432000D01*
X152400000Y-154432000D02*
X147320000Y-154432000D01*
X152400000Y-103632000D02*
X149860000Y-103632000D01*
X148590000Y-103352000D02*
X147040000Y-103352000D01*
X149860000Y-103632000D02*
X149860000Y-106172000D01*
X149860000Y-106172000D02*
X147320000Y-106172000D01*
X147040000Y-103352000D02*
X147040000Y-104902000D01*
G04 #@! TO.C,U3*
X144907000Y-102120700D02*
X142494000Y-102120700D01*
X145770600Y-102120700D02*
X145770600Y-96139000D01*
X145770600Y-96139000D02*
X139763500Y-96139000D01*
X139763500Y-96139000D02*
X139763500Y-102120700D01*
X139763500Y-102120700D02*
X145783300Y-102133400D01*
G04 #@! TO.C,M1*
X137198100Y-144221200D02*
X144691100Y-144221200D01*
X144691100Y-144221200D02*
X144691100Y-104343200D01*
X144691100Y-104343200D02*
X137198100Y-104343200D01*
X137198100Y-104343200D02*
X137198100Y-144221200D01*
G04 #@! TO.C,SW1*
X157251400Y-101079300D02*
X157251400Y-96634300D01*
X148539200Y-96634300D02*
X148539200Y-101079300D01*
X148539200Y-101079300D02*
X157251400Y-101079300D01*
X148539200Y-96634300D02*
X157251400Y-96634300D01*
X150939500Y-96634300D02*
X150939500Y-93624400D01*
X152831800Y-93624400D02*
X154838400Y-93624400D01*
X152946100Y-93624400D02*
X152946100Y-96634300D01*
X152844500Y-96634300D02*
X152844500Y-93624400D01*
X150939500Y-93624400D02*
X152946100Y-93624400D01*
X154838400Y-96634300D02*
X154838400Y-93624400D01*
G04 #@! TO.C,U3*
X147788380Y-99898104D02*
X148597904Y-99898104D01*
X148693142Y-99850485D01*
X148740761Y-99802866D01*
X148788380Y-99707628D01*
X148788380Y-99517152D01*
X148740761Y-99421914D01*
X148693142Y-99374295D01*
X148597904Y-99326676D01*
X147788380Y-99326676D01*
X147788380Y-98945723D02*
X147788380Y-98326676D01*
X148169333Y-98660009D01*
X148169333Y-98517152D01*
X148216952Y-98421914D01*
X148264571Y-98374295D01*
X148359809Y-98326676D01*
X148597904Y-98326676D01*
X148693142Y-98374295D01*
X148740761Y-98421914D01*
X148788380Y-98517152D01*
X148788380Y-98802866D01*
X148740761Y-98898104D01*
X148693142Y-98945723D01*
X143390928Y-98501152D02*
X143390928Y-97739247D01*
X143771880Y-98120200D02*
X143009976Y-98120200D01*
X143422619Y-100596652D02*
X143422619Y-99834747D01*
X146731028Y-100533152D02*
X146731028Y-99771247D01*
X146743728Y-98501152D02*
X146743728Y-97739247D01*
X147124680Y-98120200D02*
X146362776Y-98120200D01*
G04 #@! TD*
M02*
