G04 #@! TF.GenerationSoftware,KiCad,Pcbnew,5.0.2+dfsg1-1~bpo9+1*
G04 #@! TF.CreationDate,2019-07-06T14:36:30+01:00*
G04 #@! TF.ProjectId,pi_gpio_breakout_fan,70695f67-7069-46f5-9f62-7265616b6f75,rev?*
G04 #@! TF.SameCoordinates,Original*
G04 #@! TF.FileFunction,Legend,Bot*
G04 #@! TF.FilePolarity,Positive*
%FSLAX46Y46*%
G04 Gerber Fmt 4.6, Leading zero omitted, Abs format (unit mm)*
G04 Created by KiCad (PCBNEW 5.0.2+dfsg1-1~bpo9+1) date Sat 06 Jul 2019 14:36:30 BST*
%MOMM*%
%LPD*%
G01*
G04 APERTURE LIST*
%ADD10C,0.300000*%
G04 APERTURE END LIST*
D10*
X140748557Y-114702071D02*
X140748557Y-114202071D01*
X141534271Y-114202071D02*
X140034271Y-114202071D01*
X140034271Y-114916357D01*
X141534271Y-116130642D02*
X140748557Y-116130642D01*
X140605700Y-116059214D01*
X140534271Y-115916357D01*
X140534271Y-115630642D01*
X140605700Y-115487785D01*
X141462842Y-116130642D02*
X141534271Y-115987785D01*
X141534271Y-115630642D01*
X141462842Y-115487785D01*
X141319985Y-115416357D01*
X141177128Y-115416357D01*
X141034271Y-115487785D01*
X140962842Y-115630642D01*
X140962842Y-115987785D01*
X140891414Y-116130642D01*
X141462842Y-117487785D02*
X141534271Y-117344928D01*
X141534271Y-117059214D01*
X141462842Y-116916357D01*
X141391414Y-116844928D01*
X141248557Y-116773500D01*
X140819985Y-116773500D01*
X140677128Y-116844928D01*
X140605700Y-116916357D01*
X140534271Y-117059214D01*
X140534271Y-117344928D01*
X140605700Y-117487785D01*
X141462842Y-118702071D02*
X141534271Y-118559214D01*
X141534271Y-118273500D01*
X141462842Y-118130642D01*
X141319985Y-118059214D01*
X140748557Y-118059214D01*
X140605700Y-118130642D01*
X140534271Y-118273500D01*
X140534271Y-118559214D01*
X140605700Y-118702071D01*
X140748557Y-118773500D01*
X140891414Y-118773500D01*
X141034271Y-118059214D01*
X141534271Y-119630642D02*
X141462842Y-119487785D01*
X141319985Y-119416357D01*
X140034271Y-119416357D01*
X141462842Y-120773500D02*
X141534271Y-120630642D01*
X141534271Y-120344928D01*
X141462842Y-120202071D01*
X141319985Y-120130642D01*
X140748557Y-120130642D01*
X140605700Y-120202071D01*
X140534271Y-120344928D01*
X140534271Y-120630642D01*
X140605700Y-120773500D01*
X140748557Y-120844928D01*
X140891414Y-120844928D01*
X141034271Y-120130642D01*
X141462842Y-121416357D02*
X141534271Y-121559214D01*
X141534271Y-121844928D01*
X141462842Y-121987785D01*
X141319985Y-122059214D01*
X141248557Y-122059214D01*
X141105700Y-121987785D01*
X141034271Y-121844928D01*
X141034271Y-121630642D01*
X140962842Y-121487785D01*
X140819985Y-121416357D01*
X140748557Y-121416357D01*
X140605700Y-121487785D01*
X140534271Y-121630642D01*
X140534271Y-121844928D01*
X140605700Y-121987785D01*
X141462842Y-122630642D02*
X141534271Y-122773500D01*
X141534271Y-123059214D01*
X141462842Y-123202071D01*
X141319985Y-123273500D01*
X141248557Y-123273500D01*
X141105700Y-123202071D01*
X141034271Y-123059214D01*
X141034271Y-122844928D01*
X140962842Y-122702071D01*
X140819985Y-122630642D01*
X140748557Y-122630642D01*
X140605700Y-122702071D01*
X140534271Y-122844928D01*
X140534271Y-123059214D01*
X140605700Y-123202071D01*
X140534271Y-123702071D02*
X140534271Y-124273500D01*
X140034271Y-123916357D02*
X141319985Y-123916357D01*
X141462842Y-123987785D01*
X141534271Y-124130642D01*
X141534271Y-124273500D01*
X141462842Y-125344928D02*
X141534271Y-125202071D01*
X141534271Y-124916357D01*
X141462842Y-124773500D01*
X141319985Y-124702071D01*
X140748557Y-124702071D01*
X140605700Y-124773500D01*
X140534271Y-124916357D01*
X140534271Y-125202071D01*
X140605700Y-125344928D01*
X140748557Y-125416357D01*
X140891414Y-125416357D01*
X141034271Y-124702071D01*
X141462842Y-126702071D02*
X141534271Y-126559214D01*
X141534271Y-126273500D01*
X141462842Y-126130642D01*
X141391414Y-126059214D01*
X141248557Y-125987785D01*
X140819985Y-125987785D01*
X140677128Y-126059214D01*
X140605700Y-126130642D01*
X140534271Y-126273500D01*
X140534271Y-126559214D01*
X140605700Y-126702071D01*
X141534271Y-127344928D02*
X140034271Y-127344928D01*
X141534271Y-127987785D02*
X140748557Y-127987785D01*
X140605700Y-127916357D01*
X140534271Y-127773500D01*
X140534271Y-127559214D01*
X140605700Y-127416357D01*
X140677128Y-127344928D01*
X140177128Y-129773500D02*
X140105700Y-129844928D01*
X140034271Y-129987785D01*
X140034271Y-130344928D01*
X140105700Y-130487785D01*
X140177128Y-130559214D01*
X140319985Y-130630642D01*
X140462842Y-130630642D01*
X140677128Y-130559214D01*
X141534271Y-129702071D01*
X141534271Y-130630642D01*
X140034271Y-131559214D02*
X140034271Y-131702071D01*
X140105700Y-131844928D01*
X140177128Y-131916357D01*
X140319985Y-131987785D01*
X140605700Y-132059214D01*
X140962842Y-132059214D01*
X141248557Y-131987785D01*
X141391414Y-131916357D01*
X141462842Y-131844928D01*
X141534271Y-131702071D01*
X141534271Y-131559214D01*
X141462842Y-131416357D01*
X141391414Y-131344928D01*
X141248557Y-131273500D01*
X140962842Y-131202071D01*
X140605700Y-131202071D01*
X140319985Y-131273500D01*
X140177128Y-131344928D01*
X140105700Y-131416357D01*
X140034271Y-131559214D01*
X141534271Y-133487785D02*
X141534271Y-132630642D01*
X141534271Y-133059214D02*
X140034271Y-133059214D01*
X140248557Y-132916357D01*
X140391414Y-132773500D01*
X140462842Y-132630642D01*
X141534271Y-134202071D02*
X141534271Y-134487785D01*
X141462842Y-134630642D01*
X141391414Y-134702071D01*
X141177128Y-134844928D01*
X140891414Y-134916357D01*
X140319985Y-134916357D01*
X140177128Y-134844928D01*
X140105700Y-134773500D01*
X140034271Y-134630642D01*
X140034271Y-134344928D01*
X140105700Y-134202071D01*
X140177128Y-134130642D01*
X140319985Y-134059214D01*
X140677128Y-134059214D01*
X140819985Y-134130642D01*
X140891414Y-134202071D01*
X140962842Y-134344928D01*
X140962842Y-134630642D01*
X140891414Y-134773500D01*
X140819985Y-134844928D01*
X140677128Y-134916357D01*
X142785957Y-146311157D02*
X143285957Y-146311157D01*
X143285957Y-147096871D02*
X143285957Y-145596871D01*
X142571671Y-145596871D01*
X141357385Y-147096871D02*
X141357385Y-146311157D01*
X141428814Y-146168300D01*
X141571671Y-146096871D01*
X141857385Y-146096871D01*
X142000242Y-146168300D01*
X141357385Y-147025442D02*
X141500242Y-147096871D01*
X141857385Y-147096871D01*
X142000242Y-147025442D01*
X142071671Y-146882585D01*
X142071671Y-146739728D01*
X142000242Y-146596871D01*
X141857385Y-146525442D01*
X141500242Y-146525442D01*
X141357385Y-146454014D01*
X140643100Y-146096871D02*
X140643100Y-147096871D01*
X140643100Y-146239728D02*
X140571671Y-146168300D01*
X140428814Y-146096871D01*
X140214528Y-146096871D01*
X140071671Y-146168300D01*
X140000242Y-146311157D01*
X140000242Y-147096871D01*
X145714528Y-151137157D02*
X145500242Y-151208585D01*
X145428814Y-151280014D01*
X145357385Y-151422871D01*
X145357385Y-151637157D01*
X145428814Y-151780014D01*
X145500242Y-151851442D01*
X145643100Y-151922871D01*
X146214528Y-151922871D01*
X146214528Y-150422871D01*
X145714528Y-150422871D01*
X145571671Y-150494300D01*
X145500242Y-150565728D01*
X145428814Y-150708585D01*
X145428814Y-150851442D01*
X145500242Y-150994300D01*
X145571671Y-151065728D01*
X145714528Y-151137157D01*
X146214528Y-151137157D01*
X144714528Y-151922871D02*
X144714528Y-150922871D01*
X144714528Y-151208585D02*
X144643100Y-151065728D01*
X144571671Y-150994300D01*
X144428814Y-150922871D01*
X144285957Y-150922871D01*
X143214528Y-151851442D02*
X143357385Y-151922871D01*
X143643100Y-151922871D01*
X143785957Y-151851442D01*
X143857385Y-151708585D01*
X143857385Y-151137157D01*
X143785957Y-150994300D01*
X143643100Y-150922871D01*
X143357385Y-150922871D01*
X143214528Y-150994300D01*
X143143100Y-151137157D01*
X143143100Y-151280014D01*
X143857385Y-151422871D01*
X141857385Y-151922871D02*
X141857385Y-151137157D01*
X141928814Y-150994300D01*
X142071671Y-150922871D01*
X142357385Y-150922871D01*
X142500242Y-150994300D01*
X141857385Y-151851442D02*
X142000242Y-151922871D01*
X142357385Y-151922871D01*
X142500242Y-151851442D01*
X142571671Y-151708585D01*
X142571671Y-151565728D01*
X142500242Y-151422871D01*
X142357385Y-151351442D01*
X142000242Y-151351442D01*
X141857385Y-151280014D01*
X141143100Y-151922871D02*
X141143100Y-150422871D01*
X141000242Y-151351442D02*
X140571671Y-151922871D01*
X140571671Y-150922871D02*
X141143100Y-151494300D01*
X139714528Y-151922871D02*
X139857385Y-151851442D01*
X139928814Y-151780014D01*
X140000242Y-151637157D01*
X140000242Y-151208585D01*
X139928814Y-151065728D01*
X139857385Y-150994300D01*
X139714528Y-150922871D01*
X139500242Y-150922871D01*
X139357385Y-150994300D01*
X139285957Y-151065728D01*
X139214528Y-151208585D01*
X139214528Y-151637157D01*
X139285957Y-151780014D01*
X139357385Y-151851442D01*
X139500242Y-151922871D01*
X139714528Y-151922871D01*
X137928814Y-150922871D02*
X137928814Y-151922871D01*
X138571671Y-150922871D02*
X138571671Y-151708585D01*
X138500242Y-151851442D01*
X138357385Y-151922871D01*
X138143100Y-151922871D01*
X138000242Y-151851442D01*
X137928814Y-151780014D01*
X137428814Y-150922871D02*
X136857385Y-150922871D01*
X137214528Y-150422871D02*
X137214528Y-151708585D01*
X137143100Y-151851442D01*
X137000242Y-151922871D01*
X136857385Y-151922871D01*
X143143100Y-148119400D02*
X143285957Y-148047971D01*
X143500242Y-148047971D01*
X143714528Y-148119400D01*
X143857385Y-148262257D01*
X143928814Y-148405114D01*
X144000242Y-148690828D01*
X144000242Y-148905114D01*
X143928814Y-149190828D01*
X143857385Y-149333685D01*
X143714528Y-149476542D01*
X143500242Y-149547971D01*
X143357385Y-149547971D01*
X143143100Y-149476542D01*
X143071671Y-149405114D01*
X143071671Y-148905114D01*
X143357385Y-148905114D01*
X142428814Y-149547971D02*
X142428814Y-148047971D01*
X141857385Y-148047971D01*
X141714528Y-148119400D01*
X141643100Y-148190828D01*
X141571671Y-148333685D01*
X141571671Y-148547971D01*
X141643100Y-148690828D01*
X141714528Y-148762257D01*
X141857385Y-148833685D01*
X142428814Y-148833685D01*
X140928814Y-149547971D02*
X140928814Y-148047971D01*
X139928814Y-148047971D02*
X139643100Y-148047971D01*
X139500242Y-148119400D01*
X139357385Y-148262257D01*
X139285957Y-148547971D01*
X139285957Y-149047971D01*
X139357385Y-149333685D01*
X139500242Y-149476542D01*
X139643100Y-149547971D01*
X139928814Y-149547971D01*
X140071671Y-149476542D01*
X140214528Y-149333685D01*
X140285957Y-149047971D01*
X140285957Y-148547971D01*
X140214528Y-148262257D01*
X140071671Y-148119400D01*
X139928814Y-148047971D01*
M02*
